<?xml version="1.0" encoding="utf-8" standalone="no"?>
<!DOCTYPE svg PUBLIC "-//W3C//DTD SVG 1.1//EN"
  "http://www.w3.org/Graphics/SVG/1.1/DTD/svg11.dtd">
<svg xmlns:xlink="http://www.w3.org/1999/xlink" width="576pt" height="432pt" viewBox="0 0 576 432" xmlns="http://www.w3.org/2000/svg" version="1.1">
 <metadata>
  <rdf:RDF xmlns:dc="http://purl.org/dc/elements/1.1/" xmlns:cc="http://creativecommons.org/ns#" xmlns:rdf="http://www.w3.org/1999/02/22-rdf-syntax-ns#">
   <cc:Work>
    <dc:type rdf:resource="http://purl.org/dc/dcmitype/StillImage"/>
    <dc:date>2023-05-13T15:33:41.996868</dc:date>
    <dc:format>image/svg+xml</dc:format>
    <dc:creator>
     <cc:Agent>
      <dc:title>Matplotlib v3.7.1, https://matplotlib.org/</dc:title>
     </cc:Agent>
    </dc:creator>
   </cc:Work>
  </rdf:RDF>
 </metadata>
 <defs>
  <style type="text/css">*{stroke-linejoin: round; stroke-linecap: butt}</style>
 </defs>
 <g id="figure_1">
  <g id="patch_1">
   <path d="M 0 432 
L 576 432 
L 576 0 
L 0 0 
z
" style="fill: #ffffff"/>
  </g>
  <g id="axes_1">
   <g id="patch_2">
    <path d="M 72 203.04 
L 518.4 203.04 
L 518.4 51.84 
L 72 51.84 
z
" style="fill: #ffffff"/>
   </g>
   <g id="matplotlib.axis_1">
    <g id="xtick_1">
     <g id="line2d_1">
      <defs>
       <path id="m43e8bc673f" d="M 0 0 
L 0 3.5 
" style="stroke: #000000; stroke-width: 0.8"/>
      </defs>
      <g>
       <use xlink:href="#m43e8bc673f" x="92.290909" y="203.04" style="stroke: #000000; stroke-width: 0.8"/>
      </g>
     </g>
     <g id="text_1">
      <!-- 0 -->
      <g transform="translate(89.109659 217.638437) scale(0.1 -0.1)">
       <defs>
        <path id="DejaVuSans-30" d="M 2034 4250 
Q 1547 4250 1301 3770 
Q 1056 3291 1056 2328 
Q 1056 1369 1301 889 
Q 1547 409 2034 409 
Q 2525 409 2770 889 
Q 3016 1369 3016 2328 
Q 3016 3291 2770 3770 
Q 2525 4250 2034 4250 
z
M 2034 4750 
Q 2819 4750 3233 4129 
Q 3647 3509 3647 2328 
Q 3647 1150 3233 529 
Q 2819 -91 2034 -91 
Q 1250 -91 836 529 
Q 422 1150 422 2328 
Q 422 3509 836 4129 
Q 1250 4750 2034 4750 
z
" transform="scale(0.015625)"/>
       </defs>
       <use xlink:href="#DejaVuSans-30"/>
      </g>
     </g>
    </g>
    <g id="xtick_2">
     <g id="line2d_2">
      <g>
       <use xlink:href="#m43e8bc673f" x="173.454545" y="203.04" style="stroke: #000000; stroke-width: 0.8"/>
      </g>
     </g>
     <g id="text_2">
      <!-- 2 -->
      <g transform="translate(170.273295 217.638437) scale(0.1 -0.1)">
       <defs>
        <path id="DejaVuSans-32" d="M 1228 531 
L 3431 531 
L 3431 0 
L 469 0 
L 469 531 
Q 828 903 1448 1529 
Q 2069 2156 2228 2338 
Q 2531 2678 2651 2914 
Q 2772 3150 2772 3378 
Q 2772 3750 2511 3984 
Q 2250 4219 1831 4219 
Q 1534 4219 1204 4116 
Q 875 4013 500 3803 
L 500 4441 
Q 881 4594 1212 4672 
Q 1544 4750 1819 4750 
Q 2544 4750 2975 4387 
Q 3406 4025 3406 3419 
Q 3406 3131 3298 2873 
Q 3191 2616 2906 2266 
Q 2828 2175 2409 1742 
Q 1991 1309 1228 531 
z
" transform="scale(0.015625)"/>
       </defs>
       <use xlink:href="#DejaVuSans-32"/>
      </g>
     </g>
    </g>
    <g id="xtick_3">
     <g id="line2d_3">
      <g>
       <use xlink:href="#m43e8bc673f" x="254.618182" y="203.04" style="stroke: #000000; stroke-width: 0.8"/>
      </g>
     </g>
     <g id="text_3">
      <!-- 4 -->
      <g transform="translate(251.436932 217.638437) scale(0.1 -0.1)">
       <defs>
        <path id="DejaVuSans-34" d="M 2419 4116 
L 825 1625 
L 2419 1625 
L 2419 4116 
z
M 2253 4666 
L 3047 4666 
L 3047 1625 
L 3713 1625 
L 3713 1100 
L 3047 1100 
L 3047 0 
L 2419 0 
L 2419 1100 
L 313 1100 
L 313 1709 
L 2253 4666 
z
" transform="scale(0.015625)"/>
       </defs>
       <use xlink:href="#DejaVuSans-34"/>
      </g>
     </g>
    </g>
    <g id="xtick_4">
     <g id="line2d_4">
      <g>
       <use xlink:href="#m43e8bc673f" x="335.781818" y="203.04" style="stroke: #000000; stroke-width: 0.8"/>
      </g>
     </g>
     <g id="text_4">
      <!-- 6 -->
      <g transform="translate(332.600568 217.638437) scale(0.1 -0.1)">
       <defs>
        <path id="DejaVuSans-36" d="M 2113 2584 
Q 1688 2584 1439 2293 
Q 1191 2003 1191 1497 
Q 1191 994 1439 701 
Q 1688 409 2113 409 
Q 2538 409 2786 701 
Q 3034 994 3034 1497 
Q 3034 2003 2786 2293 
Q 2538 2584 2113 2584 
z
M 3366 4563 
L 3366 3988 
Q 3128 4100 2886 4159 
Q 2644 4219 2406 4219 
Q 1781 4219 1451 3797 
Q 1122 3375 1075 2522 
Q 1259 2794 1537 2939 
Q 1816 3084 2150 3084 
Q 2853 3084 3261 2657 
Q 3669 2231 3669 1497 
Q 3669 778 3244 343 
Q 2819 -91 2113 -91 
Q 1303 -91 875 529 
Q 447 1150 447 2328 
Q 447 3434 972 4092 
Q 1497 4750 2381 4750 
Q 2619 4750 2861 4703 
Q 3103 4656 3366 4563 
z
" transform="scale(0.015625)"/>
       </defs>
       <use xlink:href="#DejaVuSans-36"/>
      </g>
     </g>
    </g>
    <g id="xtick_5">
     <g id="line2d_5">
      <g>
       <use xlink:href="#m43e8bc673f" x="416.945455" y="203.04" style="stroke: #000000; stroke-width: 0.8"/>
      </g>
     </g>
     <g id="text_5">
      <!-- 8 -->
      <g transform="translate(413.764205 217.638437) scale(0.1 -0.1)">
       <defs>
        <path id="DejaVuSans-38" d="M 2034 2216 
Q 1584 2216 1326 1975 
Q 1069 1734 1069 1313 
Q 1069 891 1326 650 
Q 1584 409 2034 409 
Q 2484 409 2743 651 
Q 3003 894 3003 1313 
Q 3003 1734 2745 1975 
Q 2488 2216 2034 2216 
z
M 1403 2484 
Q 997 2584 770 2862 
Q 544 3141 544 3541 
Q 544 4100 942 4425 
Q 1341 4750 2034 4750 
Q 2731 4750 3128 4425 
Q 3525 4100 3525 3541 
Q 3525 3141 3298 2862 
Q 3072 2584 2669 2484 
Q 3125 2378 3379 2068 
Q 3634 1759 3634 1313 
Q 3634 634 3220 271 
Q 2806 -91 2034 -91 
Q 1263 -91 848 271 
Q 434 634 434 1313 
Q 434 1759 690 2068 
Q 947 2378 1403 2484 
z
M 1172 3481 
Q 1172 3119 1398 2916 
Q 1625 2713 2034 2713 
Q 2441 2713 2670 2916 
Q 2900 3119 2900 3481 
Q 2900 3844 2670 4047 
Q 2441 4250 2034 4250 
Q 1625 4250 1398 4047 
Q 1172 3844 1172 3481 
z
" transform="scale(0.015625)"/>
       </defs>
       <use xlink:href="#DejaVuSans-38"/>
      </g>
     </g>
    </g>
    <g id="xtick_6">
     <g id="line2d_6">
      <g>
       <use xlink:href="#m43e8bc673f" x="498.109091" y="203.04" style="stroke: #000000; stroke-width: 0.8"/>
      </g>
     </g>
     <g id="text_6">
      <!-- 10 -->
      <g transform="translate(491.746591 217.638437) scale(0.1 -0.1)">
       <defs>
        <path id="DejaVuSans-31" d="M 794 531 
L 1825 531 
L 1825 4091 
L 703 3866 
L 703 4441 
L 1819 4666 
L 2450 4666 
L 2450 531 
L 3481 531 
L 3481 0 
L 794 0 
L 794 531 
z
" transform="scale(0.015625)"/>
       </defs>
       <use xlink:href="#DejaVuSans-31"/>
       <use xlink:href="#DejaVuSans-30" x="63.623047"/>
      </g>
     </g>
    </g>
   </g>
   <g id="matplotlib.axis_2">
    <g id="ytick_1">
     <g id="line2d_7">
      <defs>
       <path id="m0b52dc0a0a" d="M 0 0 
L -3.5 0 
" style="stroke: #000000; stroke-width: 0.8"/>
      </defs>
      <g>
       <use xlink:href="#m0b52dc0a0a" x="72" y="196.829308" style="stroke: #000000; stroke-width: 0.8"/>
      </g>
     </g>
     <g id="text_7">
      <!-- 0.0 -->
      <g transform="translate(49.096875 200.628526) scale(0.1 -0.1)">
       <defs>
        <path id="DejaVuSans-2e" d="M 684 794 
L 1344 794 
L 1344 0 
L 684 0 
L 684 794 
z
" transform="scale(0.015625)"/>
       </defs>
       <use xlink:href="#DejaVuSans-30"/>
       <use xlink:href="#DejaVuSans-2e" x="63.623047"/>
       <use xlink:href="#DejaVuSans-30" x="95.410156"/>
      </g>
     </g>
    </g>
    <g id="ytick_2">
     <g id="line2d_8">
      <g>
       <use xlink:href="#m0b52dc0a0a" x="72" y="163.396549" style="stroke: #000000; stroke-width: 0.8"/>
      </g>
     </g>
     <g id="text_8">
      <!-- 0.5 -->
      <g transform="translate(49.096875 167.195768) scale(0.1 -0.1)">
       <defs>
        <path id="DejaVuSans-35" d="M 691 4666 
L 3169 4666 
L 3169 4134 
L 1269 4134 
L 1269 2991 
Q 1406 3038 1543 3061 
Q 1681 3084 1819 3084 
Q 2600 3084 3056 2656 
Q 3513 2228 3513 1497 
Q 3513 744 3044 326 
Q 2575 -91 1722 -91 
Q 1428 -91 1123 -41 
Q 819 9 494 109 
L 494 744 
Q 775 591 1075 516 
Q 1375 441 1709 441 
Q 2250 441 2565 725 
Q 2881 1009 2881 1497 
Q 2881 1984 2565 2268 
Q 2250 2553 1709 2553 
Q 1456 2553 1204 2497 
Q 953 2441 691 2322 
L 691 4666 
z
" transform="scale(0.015625)"/>
       </defs>
       <use xlink:href="#DejaVuSans-30"/>
       <use xlink:href="#DejaVuSans-2e" x="63.623047"/>
       <use xlink:href="#DejaVuSans-35" x="95.410156"/>
      </g>
     </g>
    </g>
    <g id="ytick_3">
     <g id="line2d_9">
      <g>
       <use xlink:href="#m0b52dc0a0a" x="72" y="129.963791" style="stroke: #000000; stroke-width: 0.8"/>
      </g>
     </g>
     <g id="text_9">
      <!-- 1.0 -->
      <g transform="translate(49.096875 133.76301) scale(0.1 -0.1)">
       <use xlink:href="#DejaVuSans-31"/>
       <use xlink:href="#DejaVuSans-2e" x="63.623047"/>
       <use xlink:href="#DejaVuSans-30" x="95.410156"/>
      </g>
     </g>
    </g>
    <g id="ytick_4">
     <g id="line2d_10">
      <g>
       <use xlink:href="#m0b52dc0a0a" x="72" y="96.531033" style="stroke: #000000; stroke-width: 0.8"/>
      </g>
     </g>
     <g id="text_10">
      <!-- 1.5 -->
      <g transform="translate(49.096875 100.330251) scale(0.1 -0.1)">
       <use xlink:href="#DejaVuSans-31"/>
       <use xlink:href="#DejaVuSans-2e" x="63.623047"/>
       <use xlink:href="#DejaVuSans-35" x="95.410156"/>
      </g>
     </g>
    </g>
    <g id="ytick_5">
     <g id="line2d_11">
      <g>
       <use xlink:href="#m0b52dc0a0a" x="72" y="63.098274" style="stroke: #000000; stroke-width: 0.8"/>
      </g>
     </g>
     <g id="text_11">
      <!-- 2.0 -->
      <g transform="translate(49.096875 66.897493) scale(0.1 -0.1)">
       <use xlink:href="#DejaVuSans-32"/>
       <use xlink:href="#DejaVuSans-2e" x="63.623047"/>
       <use xlink:href="#DejaVuSans-30" x="95.410156"/>
      </g>
     </g>
    </g>
    <g id="text_12">
     <!-- Magnitude Ratio -->
     <g transform="translate(43.017187 168.353281) rotate(-90) scale(0.1 -0.1)">
      <defs>
       <path id="DejaVuSans-4d" d="M 628 4666 
L 1569 4666 
L 2759 1491 
L 3956 4666 
L 4897 4666 
L 4897 0 
L 4281 0 
L 4281 4097 
L 3078 897 
L 2444 897 
L 1241 4097 
L 1241 0 
L 628 0 
L 628 4666 
z
" transform="scale(0.015625)"/>
       <path id="DejaVuSans-61" d="M 2194 1759 
Q 1497 1759 1228 1600 
Q 959 1441 959 1056 
Q 959 750 1161 570 
Q 1363 391 1709 391 
Q 2188 391 2477 730 
Q 2766 1069 2766 1631 
L 2766 1759 
L 2194 1759 
z
M 3341 1997 
L 3341 0 
L 2766 0 
L 2766 531 
Q 2569 213 2275 61 
Q 1981 -91 1556 -91 
Q 1019 -91 701 211 
Q 384 513 384 1019 
Q 384 1609 779 1909 
Q 1175 2209 1959 2209 
L 2766 2209 
L 2766 2266 
Q 2766 2663 2505 2880 
Q 2244 3097 1772 3097 
Q 1472 3097 1187 3025 
Q 903 2953 641 2809 
L 641 3341 
Q 956 3463 1253 3523 
Q 1550 3584 1831 3584 
Q 2591 3584 2966 3190 
Q 3341 2797 3341 1997 
z
" transform="scale(0.015625)"/>
       <path id="DejaVuSans-67" d="M 2906 1791 
Q 2906 2416 2648 2759 
Q 2391 3103 1925 3103 
Q 1463 3103 1205 2759 
Q 947 2416 947 1791 
Q 947 1169 1205 825 
Q 1463 481 1925 481 
Q 2391 481 2648 825 
Q 2906 1169 2906 1791 
z
M 3481 434 
Q 3481 -459 3084 -895 
Q 2688 -1331 1869 -1331 
Q 1566 -1331 1297 -1286 
Q 1028 -1241 775 -1147 
L 775 -588 
Q 1028 -725 1275 -790 
Q 1522 -856 1778 -856 
Q 2344 -856 2625 -561 
Q 2906 -266 2906 331 
L 2906 616 
Q 2728 306 2450 153 
Q 2172 0 1784 0 
Q 1141 0 747 490 
Q 353 981 353 1791 
Q 353 2603 747 3093 
Q 1141 3584 1784 3584 
Q 2172 3584 2450 3431 
Q 2728 3278 2906 2969 
L 2906 3500 
L 3481 3500 
L 3481 434 
z
" transform="scale(0.015625)"/>
       <path id="DejaVuSans-6e" d="M 3513 2113 
L 3513 0 
L 2938 0 
L 2938 2094 
Q 2938 2591 2744 2837 
Q 2550 3084 2163 3084 
Q 1697 3084 1428 2787 
Q 1159 2491 1159 1978 
L 1159 0 
L 581 0 
L 581 3500 
L 1159 3500 
L 1159 2956 
Q 1366 3272 1645 3428 
Q 1925 3584 2291 3584 
Q 2894 3584 3203 3211 
Q 3513 2838 3513 2113 
z
" transform="scale(0.015625)"/>
       <path id="DejaVuSans-69" d="M 603 3500 
L 1178 3500 
L 1178 0 
L 603 0 
L 603 3500 
z
M 603 4863 
L 1178 4863 
L 1178 4134 
L 603 4134 
L 603 4863 
z
" transform="scale(0.015625)"/>
       <path id="DejaVuSans-74" d="M 1172 4494 
L 1172 3500 
L 2356 3500 
L 2356 3053 
L 1172 3053 
L 1172 1153 
Q 1172 725 1289 603 
Q 1406 481 1766 481 
L 2356 481 
L 2356 0 
L 1766 0 
Q 1100 0 847 248 
Q 594 497 594 1153 
L 594 3053 
L 172 3053 
L 172 3500 
L 594 3500 
L 594 4494 
L 1172 4494 
z
" transform="scale(0.015625)"/>
       <path id="DejaVuSans-75" d="M 544 1381 
L 544 3500 
L 1119 3500 
L 1119 1403 
Q 1119 906 1312 657 
Q 1506 409 1894 409 
Q 2359 409 2629 706 
Q 2900 1003 2900 1516 
L 2900 3500 
L 3475 3500 
L 3475 0 
L 2900 0 
L 2900 538 
Q 2691 219 2414 64 
Q 2138 -91 1772 -91 
Q 1169 -91 856 284 
Q 544 659 544 1381 
z
M 1991 3584 
L 1991 3584 
z
" transform="scale(0.015625)"/>
       <path id="DejaVuSans-64" d="M 2906 2969 
L 2906 4863 
L 3481 4863 
L 3481 0 
L 2906 0 
L 2906 525 
Q 2725 213 2448 61 
Q 2172 -91 1784 -91 
Q 1150 -91 751 415 
Q 353 922 353 1747 
Q 353 2572 751 3078 
Q 1150 3584 1784 3584 
Q 2172 3584 2448 3432 
Q 2725 3281 2906 2969 
z
M 947 1747 
Q 947 1113 1208 752 
Q 1469 391 1925 391 
Q 2381 391 2643 752 
Q 2906 1113 2906 1747 
Q 2906 2381 2643 2742 
Q 2381 3103 1925 3103 
Q 1469 3103 1208 2742 
Q 947 2381 947 1747 
z
" transform="scale(0.015625)"/>
       <path id="DejaVuSans-65" d="M 3597 1894 
L 3597 1613 
L 953 1613 
Q 991 1019 1311 708 
Q 1631 397 2203 397 
Q 2534 397 2845 478 
Q 3156 559 3463 722 
L 3463 178 
Q 3153 47 2828 -22 
Q 2503 -91 2169 -91 
Q 1331 -91 842 396 
Q 353 884 353 1716 
Q 353 2575 817 3079 
Q 1281 3584 2069 3584 
Q 2775 3584 3186 3129 
Q 3597 2675 3597 1894 
z
M 3022 2063 
Q 3016 2534 2758 2815 
Q 2500 3097 2075 3097 
Q 1594 3097 1305 2825 
Q 1016 2553 972 2059 
L 3022 2063 
z
" transform="scale(0.015625)"/>
       <path id="DejaVuSans-20" transform="scale(0.015625)"/>
       <path id="DejaVuSans-52" d="M 2841 2188 
Q 3044 2119 3236 1894 
Q 3428 1669 3622 1275 
L 4263 0 
L 3584 0 
L 2988 1197 
Q 2756 1666 2539 1819 
Q 2322 1972 1947 1972 
L 1259 1972 
L 1259 0 
L 628 0 
L 628 4666 
L 2053 4666 
Q 2853 4666 3247 4331 
Q 3641 3997 3641 3322 
Q 3641 2881 3436 2590 
Q 3231 2300 2841 2188 
z
M 1259 4147 
L 1259 2491 
L 2053 2491 
Q 2509 2491 2742 2702 
Q 2975 2913 2975 3322 
Q 2975 3731 2742 3939 
Q 2509 4147 2053 4147 
L 1259 4147 
z
" transform="scale(0.015625)"/>
       <path id="DejaVuSans-6f" d="M 1959 3097 
Q 1497 3097 1228 2736 
Q 959 2375 959 1747 
Q 959 1119 1226 758 
Q 1494 397 1959 397 
Q 2419 397 2687 759 
Q 2956 1122 2956 1747 
Q 2956 2369 2687 2733 
Q 2419 3097 1959 3097 
z
M 1959 3584 
Q 2709 3584 3137 3096 
Q 3566 2609 3566 1747 
Q 3566 888 3137 398 
Q 2709 -91 1959 -91 
Q 1206 -91 779 398 
Q 353 888 353 1747 
Q 353 2609 779 3096 
Q 1206 3584 1959 3584 
z
" transform="scale(0.015625)"/>
      </defs>
      <use xlink:href="#DejaVuSans-4d"/>
      <use xlink:href="#DejaVuSans-61" x="86.279297"/>
      <use xlink:href="#DejaVuSans-67" x="147.558594"/>
      <use xlink:href="#DejaVuSans-6e" x="211.035156"/>
      <use xlink:href="#DejaVuSans-69" x="274.414062"/>
      <use xlink:href="#DejaVuSans-74" x="302.197266"/>
      <use xlink:href="#DejaVuSans-75" x="341.40625"/>
      <use xlink:href="#DejaVuSans-64" x="404.785156"/>
      <use xlink:href="#DejaVuSans-65" x="468.261719"/>
      <use xlink:href="#DejaVuSans-20" x="529.785156"/>
      <use xlink:href="#DejaVuSans-52" x="561.572266"/>
      <use xlink:href="#DejaVuSans-61" x="628.804688"/>
      <use xlink:href="#DejaVuSans-74" x="690.083984"/>
      <use xlink:href="#DejaVuSans-69" x="729.292969"/>
      <use xlink:href="#DejaVuSans-6f" x="757.076172"/>
     </g>
    </g>
   </g>
   <g id="line2d_12">
    <path d="M 92.290909 129.963791 
L 93.915807 129.86988 
L 95.540704 129.586805 
L 97.165602 129.110498 
L 98.7905 128.434063 
L 100.415397 127.547589 
L 102.040295 126.437891 
L 103.665192 125.088181 
L 105.29009 123.477668 
L 106.914988 121.581111 
L 108.539885 119.368372 
L 110.164783 116.804063 
L 111.789681 113.847471 
L 113.414578 110.453126 
L 115.039476 106.57264 
L 116.664373 102.158993 
L 118.289271 97.175239 
L 120.320393 90.132439 
L 122.75774 80.664945 
L 126.007535 67.786778 
L 127.226208 63.711648 
L 128.038657 61.515502 
L 128.851106 59.881014 
L 129.663554 58.925283 
L 130.069779 58.733116 
L 130.476003 58.744164 
L 130.882228 58.964883 
L 131.288452 59.398885 
L 131.694676 60.046745 
L 132.507125 61.97087 
L 133.319574 64.681473 
L 134.538247 70.002144 
L 136.163145 78.747632 
L 142.256511 113.58276 
L 144.287633 123.08647 
L 145.912531 129.722594 
L 147.537428 135.571232 
L 149.162326 140.719672 
L 150.787224 145.256647 
L 152.818346 150.192648 
L 154.849468 154.441624 
L 156.88059 158.120359 
L 158.911712 161.324414 
L 160.942834 164.131478 
L 162.973956 166.604673 
L 165.411302 169.203501 
L 167.848649 171.466502 
L 170.285995 173.45021 
L 173.129566 175.471234 
L 175.973137 177.229986 
L 179.222932 178.975626 
L 182.878952 180.66373 
L 186.534971 182.114327 
L 190.597215 183.500311 
L 195.065684 184.802786 
L 200.346601 186.102679 
L 206.033743 187.273638 
L 212.533333 188.385585 
L 219.845373 189.414104 
L 228.376085 190.388333 
L 238.531695 191.312638 
L 250.312203 192.151961 
L 264.530057 192.929408 
L 281.591482 193.628424 
L 302.715152 194.259104 
L 329.119738 194.814407 
L 363.242588 195.299403 
L 409.145946 195.716529 
L 473.735627 196.064912 
L 498.109091 196.154758 
L 498.109091 196.154758 
" clip-path="url(#p41b61490b0)" style="fill: none; stroke: #1f77b4; stroke-width: 1.5; stroke-linecap: square"/>
   </g>
   <g id="line2d_13">
    <path d="M 92.290909 129.963791 
L 100.415397 130.070818 
L 108.94611 130.41128 
L 117.476822 130.978343 
L 126.413759 131.802776 
L 135.756921 132.897477 
L 145.506306 134.266925 
L 156.068141 135.975728 
L 168.254873 138.18338 
L 182.472727 140.993155 
L 202.783948 145.256586 
L 243.406388 153.819149 
L 262.498935 157.580933 
L 279.966585 160.792651 
L 296.621785 163.629992 
L 313.276986 166.242849 
L 330.338411 168.691226 
L 347.806061 170.969911 
L 365.679934 173.078925 
L 384.772482 175.103878 
L 404.677477 176.988979 
L 425.801147 178.765184 
L 448.549713 180.451452 
L 472.923178 182.032484 
L 498.109091 183.456204 
L 498.109091 183.456204 
" clip-path="url(#p41b61490b0)" style="fill: none; stroke: #ff7f0e; stroke-width: 1.5; stroke-linecap: square"/>
   </g>
   <g id="line2d_14">
    <path d="M 92.290909 129.963791 
L 101.227846 129.850131 
L 110.164783 129.507181 
L 118.695495 128.960485 
L 127.226208 128.190709 
L 135.350696 127.238809 
L 143.475184 126.059044 
L 151.193448 124.710909 
L 158.505487 123.212099 
L 165.411302 121.581111 
L 172.317117 119.72177 
L 178.816708 117.743999 
L 185.316298 115.524764 
L 191.409664 113.205147 
L 197.096806 110.81363 
L 202.783948 108.186285 
L 208.471089 105.306511 
L 213.752007 102.39298 
L 219.032924 99.238683 
L 224.313841 95.838062 
L 230.000983 91.902478 
L 235.688124 87.700132 
L 242.187715 82.623597 
L 261.280262 67.49275 
L 264.936282 64.981318 
L 268.186077 63.001237 
L 271.029648 61.515502 
L 273.466994 60.459592 
L 275.904341 59.632105 
L 278.341687 59.057108 
L 280.372809 58.786048 
L 282.403931 58.714885 
L 284.435053 58.851138 
L 286.466175 59.199584 
L 288.497297 59.76203 
L 290.528419 60.537191 
L 292.559541 61.520687 
L 294.996888 62.965349 
L 297.434234 64.681473 
L 300.277805 66.99633 
L 303.121376 69.607589 
L 306.371171 72.895046 
L 310.433415 77.353431 
L 315.714333 83.519032 
L 331.963309 102.733833 
L 337.244226 108.534867 
L 342.118919 113.58276 
L 346.993612 118.316389 
L 351.868305 122.732609 
L 356.742998 126.838616 
L 361.61769 130.648055 
L 366.492383 134.178239 
L 371.367076 137.448216 
L 376.647993 140.719672 
L 381.928911 143.732924 
L 387.616052 146.715646 
L 393.303194 149.452415 
L 399.39656 152.139407 
L 405.896151 154.755515 
L 412.801966 157.284034 
L 420.114005 159.712384 
L 427.832269 162.031716 
L 435.956757 164.236439 
L 444.487469 166.323722 
L 453.830631 168.37772 
L 463.986241 170.373143 
L 474.9543 172.29075 
L 486.734808 174.116808 
L 498.109091 175.684575 
L 498.109091 175.684575 
" clip-path="url(#p41b61490b0)" style="fill: none; stroke: #2ca02c; stroke-width: 1.5; stroke-linecap: square"/>
   </g>
   <g id="line2d_15">
    <path d="M 92.290909 129.963791 
L 104.071417 130.0762 
L 115.851925 130.410056 
L 128.038657 130.977931 
L 141.037838 131.813674 
L 154.849468 132.931724 
L 169.879771 134.374062 
L 187.34742 136.278778 
L 209.689762 138.952879 
L 258.436691 145.094408 
L 291.340868 149.096511 
L 318.964128 152.231982 
L 345.368714 155.002609 
L 371.367076 157.507925 
L 398.177887 159.867165 
L 425.801147 162.074927 
L 455.049304 164.187449 
L 485.922359 166.192382 
L 498.109091 166.926139 
L 498.109091 166.926139 
" clip-path="url(#p41b61490b0)" style="fill: none; stroke: #d62728; stroke-width: 1.5; stroke-linecap: square"/>
   </g>
   <g id="line2d_16">
    <path d="M 92.290909 129.963791 
L 93.915807 130.070818 
L 95.540704 130.389855 
L 97.165602 130.91486 
L 99.196724 131.845582 
L 101.227846 133.056574 
L 103.258968 134.515562 
L 105.696314 136.542207 
L 108.539885 139.202542 
L 112.602129 143.358315 
L 124.788862 156.089496 
L 128.851106 159.920118 
L 132.91335 163.429999 
L 136.569369 166.303795 
L 140.225389 168.912714 
L 143.881409 171.270371 
L 147.943653 173.617429 
L 152.005897 175.704286 
L 156.474365 177.732515 
L 160.942834 179.514802 
L 165.817527 181.216234 
L 171.098444 182.814725 
L 176.785586 184.296094 
L 182.878952 185.65313 
L 189.784767 186.954812 
L 197.50303 188.169695 
L 206.033743 189.278748 
L 215.783129 190.312271 
L 226.751188 191.246968 
L 239.750369 192.12156 
L 254.780672 192.903443 
L 273.06077 193.621123 
L 294.996888 194.252599 
L 322.620147 194.816092 
L 357.961671 195.304691 
L 405.083702 195.722423 
L 471.29828 196.071395 
L 498.109091 196.167273 
L 498.109091 196.167273 
" clip-path="url(#p41b61490b0)" style="fill: none; stroke: #9467bd; stroke-width: 1.5; stroke-linecap: square"/>
   </g>
   <g id="line2d_17">
    <path d="M 92.290909 129.963791 
L 94.728256 130.084065 
L 97.165602 130.441029 
L 99.602948 131.023449 
L 102.040295 131.813674 
L 104.883866 132.967827 
L 108.133661 134.541979 
L 111.789681 136.559804 
L 117.070598 139.761472 
L 132.91335 149.571906 
L 138.600491 152.760593 
L 144.287633 155.689528 
L 149.974775 158.355322 
L 155.661916 160.769841 
L 161.349058 162.952342 
L 167.442424 165.05823 
L 173.942015 167.069216 
L 180.84783 168.973316 
L 188.159869 170.763912 
L 196.284357 172.521366 
L 205.221294 174.216728 
L 214.97068 175.829672 
L 225.532514 177.347444 
L 237.313022 178.810399 
L 250.312203 180.197129 
L 264.936282 181.528987 
L 281.591482 182.813288 
L 300.277805 184.02417 
L 321.401474 185.167108 
L 345.774939 186.259001 
L 374.210647 187.30234 
L 407.114824 188.280855 
L 446.112367 189.210069 
L 492.421949 190.08233 
L 498.109091 190.17594 
L 498.109091 190.17594 
" clip-path="url(#p41b61490b0)" style="fill: none; stroke: #8c564b; stroke-width: 1.5; stroke-linecap: square"/>
   </g>
   <g id="patch_3">
    <path d="M 72 203.04 
L 72 51.84 
" style="fill: none; stroke: #000000; stroke-width: 0.8; stroke-linejoin: miter; stroke-linecap: square"/>
   </g>
   <g id="patch_4">
    <path d="M 518.4 203.04 
L 518.4 51.84 
" style="fill: none; stroke: #000000; stroke-width: 0.8; stroke-linejoin: miter; stroke-linecap: square"/>
   </g>
   <g id="patch_5">
    <path d="M 72 203.04 
L 518.4 203.04 
" style="fill: none; stroke: #000000; stroke-width: 0.8; stroke-linejoin: miter; stroke-linecap: square"/>
   </g>
   <g id="patch_6">
    <path d="M 72 51.84 
L 518.4 51.84 
" style="fill: none; stroke: #000000; stroke-width: 0.8; stroke-linejoin: miter; stroke-linecap: square"/>
   </g>
   <g id="text_13">
    <!-- Bode Plot -->
    <g transform="translate(266.69625 45.84) scale(0.12 -0.12)">
     <defs>
      <path id="DejaVuSans-42" d="M 1259 2228 
L 1259 519 
L 2272 519 
Q 2781 519 3026 730 
Q 3272 941 3272 1375 
Q 3272 1813 3026 2020 
Q 2781 2228 2272 2228 
L 1259 2228 
z
M 1259 4147 
L 1259 2741 
L 2194 2741 
Q 2656 2741 2882 2914 
Q 3109 3088 3109 3444 
Q 3109 3797 2882 3972 
Q 2656 4147 2194 4147 
L 1259 4147 
z
M 628 4666 
L 2241 4666 
Q 2963 4666 3353 4366 
Q 3744 4066 3744 3513 
Q 3744 3084 3544 2831 
Q 3344 2578 2956 2516 
Q 3422 2416 3680 2098 
Q 3938 1781 3938 1306 
Q 3938 681 3513 340 
Q 3088 0 2303 0 
L 628 0 
L 628 4666 
z
" transform="scale(0.015625)"/>
      <path id="DejaVuSans-50" d="M 1259 4147 
L 1259 2394 
L 2053 2394 
Q 2494 2394 2734 2622 
Q 2975 2850 2975 3272 
Q 2975 3691 2734 3919 
Q 2494 4147 2053 4147 
L 1259 4147 
z
M 628 4666 
L 2053 4666 
Q 2838 4666 3239 4311 
Q 3641 3956 3641 3272 
Q 3641 2581 3239 2228 
Q 2838 1875 2053 1875 
L 1259 1875 
L 1259 0 
L 628 0 
L 628 4666 
z
" transform="scale(0.015625)"/>
      <path id="DejaVuSans-6c" d="M 603 4863 
L 1178 4863 
L 1178 0 
L 603 0 
L 603 4863 
z
" transform="scale(0.015625)"/>
     </defs>
     <use xlink:href="#DejaVuSans-42"/>
     <use xlink:href="#DejaVuSans-6f" x="68.603516"/>
     <use xlink:href="#DejaVuSans-64" x="129.785156"/>
     <use xlink:href="#DejaVuSans-65" x="193.261719"/>
     <use xlink:href="#DejaVuSans-20" x="254.785156"/>
     <use xlink:href="#DejaVuSans-50" x="286.572266"/>
     <use xlink:href="#DejaVuSans-6c" x="346.875"/>
     <use xlink:href="#DejaVuSans-6f" x="374.658203"/>
     <use xlink:href="#DejaVuSans-74" x="435.839844"/>
    </g>
   </g>
   <g id="legend_1">
    <g id="patch_7">
     <path d="M 450.3375 147.90875 
L 511.4 147.90875 
Q 513.4 147.90875 513.4 145.90875 
L 513.4 58.84 
Q 513.4 56.84 511.4 56.84 
L 450.3375 56.84 
Q 448.3375 56.84 448.3375 58.84 
L 448.3375 145.90875 
Q 448.3375 147.90875 450.3375 147.90875 
z
" style="fill: #ffffff; opacity: 0.8; stroke: #cccccc; stroke-linejoin: miter"/>
    </g>
    <g id="line2d_18">
     <path d="M 452.3375 64.938437 
L 462.3375 64.938437 
L 472.3375 64.938437 
" style="fill: none; stroke: #1f77b4; stroke-width: 1.5; stroke-linecap: square"/>
    </g>
    <g id="text_14">
     <!-- sys16 -->
     <g transform="translate(480.3375 68.438437) scale(0.1 -0.1)">
      <defs>
       <path id="DejaVuSans-73" d="M 2834 3397 
L 2834 2853 
Q 2591 2978 2328 3040 
Q 2066 3103 1784 3103 
Q 1356 3103 1142 2972 
Q 928 2841 928 2578 
Q 928 2378 1081 2264 
Q 1234 2150 1697 2047 
L 1894 2003 
Q 2506 1872 2764 1633 
Q 3022 1394 3022 966 
Q 3022 478 2636 193 
Q 2250 -91 1575 -91 
Q 1294 -91 989 -36 
Q 684 19 347 128 
L 347 722 
Q 666 556 975 473 
Q 1284 391 1588 391 
Q 1994 391 2212 530 
Q 2431 669 2431 922 
Q 2431 1156 2273 1281 
Q 2116 1406 1581 1522 
L 1381 1569 
Q 847 1681 609 1914 
Q 372 2147 372 2553 
Q 372 3047 722 3315 
Q 1072 3584 1716 3584 
Q 2034 3584 2315 3537 
Q 2597 3491 2834 3397 
z
" transform="scale(0.015625)"/>
       <path id="DejaVuSans-79" d="M 2059 -325 
Q 1816 -950 1584 -1140 
Q 1353 -1331 966 -1331 
L 506 -1331 
L 506 -850 
L 844 -850 
Q 1081 -850 1212 -737 
Q 1344 -625 1503 -206 
L 1606 56 
L 191 3500 
L 800 3500 
L 1894 763 
L 2988 3500 
L 3597 3500 
L 2059 -325 
z
" transform="scale(0.015625)"/>
      </defs>
      <use xlink:href="#DejaVuSans-73"/>
      <use xlink:href="#DejaVuSans-79" x="52.099609"/>
      <use xlink:href="#DejaVuSans-73" x="111.279297"/>
      <use xlink:href="#DejaVuSans-31" x="163.378906"/>
      <use xlink:href="#DejaVuSans-36" x="227.001953"/>
     </g>
    </g>
    <g id="line2d_19">
     <path d="M 452.3375 79.616562 
L 462.3375 79.616562 
L 472.3375 79.616562 
" style="fill: none; stroke: #ff7f0e; stroke-width: 1.5; stroke-linecap: square"/>
    </g>
    <g id="text_15">
     <!-- sys17 -->
     <g transform="translate(480.3375 83.116562) scale(0.1 -0.1)">
      <defs>
       <path id="DejaVuSans-37" d="M 525 4666 
L 3525 4666 
L 3525 4397 
L 1831 0 
L 1172 0 
L 2766 4134 
L 525 4134 
L 525 4666 
z
" transform="scale(0.015625)"/>
      </defs>
      <use xlink:href="#DejaVuSans-73"/>
      <use xlink:href="#DejaVuSans-79" x="52.099609"/>
      <use xlink:href="#DejaVuSans-73" x="111.279297"/>
      <use xlink:href="#DejaVuSans-31" x="163.378906"/>
      <use xlink:href="#DejaVuSans-37" x="227.001953"/>
     </g>
    </g>
    <g id="line2d_20">
     <path d="M 452.3375 94.294687 
L 462.3375 94.294687 
L 472.3375 94.294687 
" style="fill: none; stroke: #2ca02c; stroke-width: 1.5; stroke-linecap: square"/>
    </g>
    <g id="text_16">
     <!-- sys18 -->
     <g transform="translate(480.3375 97.794687) scale(0.1 -0.1)">
      <use xlink:href="#DejaVuSans-73"/>
      <use xlink:href="#DejaVuSans-79" x="52.099609"/>
      <use xlink:href="#DejaVuSans-73" x="111.279297"/>
      <use xlink:href="#DejaVuSans-31" x="163.378906"/>
      <use xlink:href="#DejaVuSans-38" x="227.001953"/>
     </g>
    </g>
    <g id="line2d_21">
     <path d="M 452.3375 108.972812 
L 462.3375 108.972812 
L 472.3375 108.972812 
" style="fill: none; stroke: #d62728; stroke-width: 1.5; stroke-linecap: square"/>
    </g>
    <g id="text_17">
     <!-- sys19 -->
     <g transform="translate(480.3375 112.472812) scale(0.1 -0.1)">
      <defs>
       <path id="DejaVuSans-39" d="M 703 97 
L 703 672 
Q 941 559 1184 500 
Q 1428 441 1663 441 
Q 2288 441 2617 861 
Q 2947 1281 2994 2138 
Q 2813 1869 2534 1725 
Q 2256 1581 1919 1581 
Q 1219 1581 811 2004 
Q 403 2428 403 3163 
Q 403 3881 828 4315 
Q 1253 4750 1959 4750 
Q 2769 4750 3195 4129 
Q 3622 3509 3622 2328 
Q 3622 1225 3098 567 
Q 2575 -91 1691 -91 
Q 1453 -91 1209 -44 
Q 966 3 703 97 
z
M 1959 2075 
Q 2384 2075 2632 2365 
Q 2881 2656 2881 3163 
Q 2881 3666 2632 3958 
Q 2384 4250 1959 4250 
Q 1534 4250 1286 3958 
Q 1038 3666 1038 3163 
Q 1038 2656 1286 2365 
Q 1534 2075 1959 2075 
z
" transform="scale(0.015625)"/>
      </defs>
      <use xlink:href="#DejaVuSans-73"/>
      <use xlink:href="#DejaVuSans-79" x="52.099609"/>
      <use xlink:href="#DejaVuSans-73" x="111.279297"/>
      <use xlink:href="#DejaVuSans-31" x="163.378906"/>
      <use xlink:href="#DejaVuSans-39" x="227.001953"/>
     </g>
    </g>
    <g id="line2d_22">
     <path d="M 452.3375 123.650937 
L 462.3375 123.650937 
L 472.3375 123.650937 
" style="fill: none; stroke: #9467bd; stroke-width: 1.5; stroke-linecap: square"/>
    </g>
    <g id="text_18">
     <!-- sys20 -->
     <g transform="translate(480.3375 127.150937) scale(0.1 -0.1)">
      <use xlink:href="#DejaVuSans-73"/>
      <use xlink:href="#DejaVuSans-79" x="52.099609"/>
      <use xlink:href="#DejaVuSans-73" x="111.279297"/>
      <use xlink:href="#DejaVuSans-32" x="163.378906"/>
      <use xlink:href="#DejaVuSans-30" x="227.001953"/>
     </g>
    </g>
    <g id="line2d_23">
     <path d="M 452.3375 138.329062 
L 462.3375 138.329062 
L 472.3375 138.329062 
" style="fill: none; stroke: #8c564b; stroke-width: 1.5; stroke-linecap: square"/>
    </g>
    <g id="text_19">
     <!-- sys21 -->
     <g transform="translate(480.3375 141.829062) scale(0.1 -0.1)">
      <use xlink:href="#DejaVuSans-73"/>
      <use xlink:href="#DejaVuSans-79" x="52.099609"/>
      <use xlink:href="#DejaVuSans-73" x="111.279297"/>
      <use xlink:href="#DejaVuSans-32" x="163.378906"/>
      <use xlink:href="#DejaVuSans-31" x="227.001953"/>
     </g>
    </g>
   </g>
  </g>
  <g id="axes_2">
   <g id="patch_8">
    <path d="M 72 384.48 
L 518.4 384.48 
L 518.4 233.28 
L 72 233.28 
z
" style="fill: #ffffff"/>
   </g>
   <g id="matplotlib.axis_3">
    <g id="xtick_7">
     <g id="line2d_24">
      <g>
       <use xlink:href="#m43e8bc673f" x="92.290909" y="384.48" style="stroke: #000000; stroke-width: 0.8"/>
      </g>
     </g>
     <g id="text_20">
      <!-- 0 -->
      <g transform="translate(89.109659 399.078438) scale(0.1 -0.1)">
       <use xlink:href="#DejaVuSans-30"/>
      </g>
     </g>
    </g>
    <g id="xtick_8">
     <g id="line2d_25">
      <g>
       <use xlink:href="#m43e8bc673f" x="173.454545" y="384.48" style="stroke: #000000; stroke-width: 0.8"/>
      </g>
     </g>
     <g id="text_21">
      <!-- 2 -->
      <g transform="translate(170.273295 399.078438) scale(0.1 -0.1)">
       <use xlink:href="#DejaVuSans-32"/>
      </g>
     </g>
    </g>
    <g id="xtick_9">
     <g id="line2d_26">
      <g>
       <use xlink:href="#m43e8bc673f" x="254.618182" y="384.48" style="stroke: #000000; stroke-width: 0.8"/>
      </g>
     </g>
     <g id="text_22">
      <!-- 4 -->
      <g transform="translate(251.436932 399.078438) scale(0.1 -0.1)">
       <use xlink:href="#DejaVuSans-34"/>
      </g>
     </g>
    </g>
    <g id="xtick_10">
     <g id="line2d_27">
      <g>
       <use xlink:href="#m43e8bc673f" x="335.781818" y="384.48" style="stroke: #000000; stroke-width: 0.8"/>
      </g>
     </g>
     <g id="text_23">
      <!-- 6 -->
      <g transform="translate(332.600568 399.078438) scale(0.1 -0.1)">
       <use xlink:href="#DejaVuSans-36"/>
      </g>
     </g>
    </g>
    <g id="xtick_11">
     <g id="line2d_28">
      <g>
       <use xlink:href="#m43e8bc673f" x="416.945455" y="384.48" style="stroke: #000000; stroke-width: 0.8"/>
      </g>
     </g>
     <g id="text_24">
      <!-- 8 -->
      <g transform="translate(413.764205 399.078438) scale(0.1 -0.1)">
       <use xlink:href="#DejaVuSans-38"/>
      </g>
     </g>
    </g>
    <g id="xtick_12">
     <g id="line2d_29">
      <g>
       <use xlink:href="#m43e8bc673f" x="498.109091" y="384.48" style="stroke: #000000; stroke-width: 0.8"/>
      </g>
     </g>
     <g id="text_25">
      <!-- 10 -->
      <g transform="translate(491.746591 399.078438) scale(0.1 -0.1)">
       <use xlink:href="#DejaVuSans-31"/>
       <use xlink:href="#DejaVuSans-30" x="63.623047"/>
      </g>
     </g>
    </g>
    <g id="text_26">
     <!-- Frequency (rad/s) -->
     <g transform="translate(251.296875 412.756563) scale(0.1 -0.1)">
      <defs>
       <path id="DejaVuSans-46" d="M 628 4666 
L 3309 4666 
L 3309 4134 
L 1259 4134 
L 1259 2759 
L 3109 2759 
L 3109 2228 
L 1259 2228 
L 1259 0 
L 628 0 
L 628 4666 
z
" transform="scale(0.015625)"/>
       <path id="DejaVuSans-72" d="M 2631 2963 
Q 2534 3019 2420 3045 
Q 2306 3072 2169 3072 
Q 1681 3072 1420 2755 
Q 1159 2438 1159 1844 
L 1159 0 
L 581 0 
L 581 3500 
L 1159 3500 
L 1159 2956 
Q 1341 3275 1631 3429 
Q 1922 3584 2338 3584 
Q 2397 3584 2469 3576 
Q 2541 3569 2628 3553 
L 2631 2963 
z
" transform="scale(0.015625)"/>
       <path id="DejaVuSans-71" d="M 947 1747 
Q 947 1113 1208 752 
Q 1469 391 1925 391 
Q 2381 391 2643 752 
Q 2906 1113 2906 1747 
Q 2906 2381 2643 2742 
Q 2381 3103 1925 3103 
Q 1469 3103 1208 2742 
Q 947 2381 947 1747 
z
M 2906 525 
Q 2725 213 2448 61 
Q 2172 -91 1784 -91 
Q 1150 -91 751 415 
Q 353 922 353 1747 
Q 353 2572 751 3078 
Q 1150 3584 1784 3584 
Q 2172 3584 2448 3432 
Q 2725 3281 2906 2969 
L 2906 3500 
L 3481 3500 
L 3481 -1331 
L 2906 -1331 
L 2906 525 
z
" transform="scale(0.015625)"/>
       <path id="DejaVuSans-63" d="M 3122 3366 
L 3122 2828 
Q 2878 2963 2633 3030 
Q 2388 3097 2138 3097 
Q 1578 3097 1268 2742 
Q 959 2388 959 1747 
Q 959 1106 1268 751 
Q 1578 397 2138 397 
Q 2388 397 2633 464 
Q 2878 531 3122 666 
L 3122 134 
Q 2881 22 2623 -34 
Q 2366 -91 2075 -91 
Q 1284 -91 818 406 
Q 353 903 353 1747 
Q 353 2603 823 3093 
Q 1294 3584 2113 3584 
Q 2378 3584 2631 3529 
Q 2884 3475 3122 3366 
z
" transform="scale(0.015625)"/>
       <path id="DejaVuSans-28" d="M 1984 4856 
Q 1566 4138 1362 3434 
Q 1159 2731 1159 2009 
Q 1159 1288 1364 580 
Q 1569 -128 1984 -844 
L 1484 -844 
Q 1016 -109 783 600 
Q 550 1309 550 2009 
Q 550 2706 781 3412 
Q 1013 4119 1484 4856 
L 1984 4856 
z
" transform="scale(0.015625)"/>
       <path id="DejaVuSans-2f" d="M 1625 4666 
L 2156 4666 
L 531 -594 
L 0 -594 
L 1625 4666 
z
" transform="scale(0.015625)"/>
       <path id="DejaVuSans-29" d="M 513 4856 
L 1013 4856 
Q 1481 4119 1714 3412 
Q 1947 2706 1947 2009 
Q 1947 1309 1714 600 
Q 1481 -109 1013 -844 
L 513 -844 
Q 928 -128 1133 580 
Q 1338 1288 1338 2009 
Q 1338 2731 1133 3434 
Q 928 4138 513 4856 
z
" transform="scale(0.015625)"/>
      </defs>
      <use xlink:href="#DejaVuSans-46"/>
      <use xlink:href="#DejaVuSans-72" x="50.269531"/>
      <use xlink:href="#DejaVuSans-65" x="89.132812"/>
      <use xlink:href="#DejaVuSans-71" x="150.65625"/>
      <use xlink:href="#DejaVuSans-75" x="214.132812"/>
      <use xlink:href="#DejaVuSans-65" x="277.511719"/>
      <use xlink:href="#DejaVuSans-6e" x="339.035156"/>
      <use xlink:href="#DejaVuSans-63" x="402.414062"/>
      <use xlink:href="#DejaVuSans-79" x="457.394531"/>
      <use xlink:href="#DejaVuSans-20" x="516.574219"/>
      <use xlink:href="#DejaVuSans-28" x="548.361328"/>
      <use xlink:href="#DejaVuSans-72" x="587.375"/>
      <use xlink:href="#DejaVuSans-61" x="628.488281"/>
      <use xlink:href="#DejaVuSans-64" x="689.767578"/>
      <use xlink:href="#DejaVuSans-2f" x="753.244141"/>
      <use xlink:href="#DejaVuSans-73" x="786.935547"/>
      <use xlink:href="#DejaVuSans-29" x="839.035156"/>
     </g>
    </g>
   </g>
   <g id="matplotlib.axis_4">
    <g id="ytick_6">
     <g id="line2d_30">
      <g>
       <use xlink:href="#m0b52dc0a0a" x="72" y="356.568117" style="stroke: #000000; stroke-width: 0.8"/>
      </g>
     </g>
     <g id="text_27">
      <!-- −150 -->
      <g transform="translate(37.532812 360.367335) scale(0.1 -0.1)">
       <defs>
        <path id="DejaVuSans-2212" d="M 678 2272 
L 4684 2272 
L 4684 1741 
L 678 1741 
L 678 2272 
z
" transform="scale(0.015625)"/>
       </defs>
       <use xlink:href="#DejaVuSans-2212"/>
       <use xlink:href="#DejaVuSans-31" x="83.789062"/>
       <use xlink:href="#DejaVuSans-35" x="147.412109"/>
       <use xlink:href="#DejaVuSans-30" x="211.035156"/>
      </g>
     </g>
    </g>
    <g id="ytick_7">
     <g id="line2d_31">
      <g>
       <use xlink:href="#m0b52dc0a0a" x="72" y="317.762987" style="stroke: #000000; stroke-width: 0.8"/>
      </g>
     </g>
     <g id="text_28">
      <!-- −100 -->
      <g transform="translate(37.532812 321.562206) scale(0.1 -0.1)">
       <use xlink:href="#DejaVuSans-2212"/>
       <use xlink:href="#DejaVuSans-31" x="83.789062"/>
       <use xlink:href="#DejaVuSans-30" x="147.412109"/>
       <use xlink:href="#DejaVuSans-30" x="211.035156"/>
      </g>
     </g>
    </g>
    <g id="ytick_8">
     <g id="line2d_32">
      <g>
       <use xlink:href="#m0b52dc0a0a" x="72" y="278.957857" style="stroke: #000000; stroke-width: 0.8"/>
      </g>
     </g>
     <g id="text_29">
      <!-- −50 -->
      <g transform="translate(43.895313 282.757076) scale(0.1 -0.1)">
       <use xlink:href="#DejaVuSans-2212"/>
       <use xlink:href="#DejaVuSans-35" x="83.789062"/>
       <use xlink:href="#DejaVuSans-30" x="147.412109"/>
      </g>
     </g>
    </g>
    <g id="ytick_9">
     <g id="line2d_33">
      <g>
       <use xlink:href="#m0b52dc0a0a" x="72" y="240.152727" style="stroke: #000000; stroke-width: 0.8"/>
      </g>
     </g>
     <g id="text_30">
      <!-- 0 -->
      <g transform="translate(58.6375 243.951946) scale(0.1 -0.1)">
       <use xlink:href="#DejaVuSans-30"/>
      </g>
     </g>
    </g>
    <g id="text_31">
     <!-- Phase (deg) -->
     <g transform="translate(31.453125 338.724531) rotate(-90) scale(0.1 -0.1)">
      <defs>
       <path id="DejaVuSans-68" d="M 3513 2113 
L 3513 0 
L 2938 0 
L 2938 2094 
Q 2938 2591 2744 2837 
Q 2550 3084 2163 3084 
Q 1697 3084 1428 2787 
Q 1159 2491 1159 1978 
L 1159 0 
L 581 0 
L 581 4863 
L 1159 4863 
L 1159 2956 
Q 1366 3272 1645 3428 
Q 1925 3584 2291 3584 
Q 2894 3584 3203 3211 
Q 3513 2838 3513 2113 
z
" transform="scale(0.015625)"/>
      </defs>
      <use xlink:href="#DejaVuSans-50"/>
      <use xlink:href="#DejaVuSans-68" x="60.302734"/>
      <use xlink:href="#DejaVuSans-61" x="123.681641"/>
      <use xlink:href="#DejaVuSans-73" x="184.960938"/>
      <use xlink:href="#DejaVuSans-65" x="237.060547"/>
      <use xlink:href="#DejaVuSans-20" x="298.583984"/>
      <use xlink:href="#DejaVuSans-28" x="330.371094"/>
      <use xlink:href="#DejaVuSans-64" x="369.384766"/>
      <use xlink:href="#DejaVuSans-65" x="432.861328"/>
      <use xlink:href="#DejaVuSans-67" x="494.384766"/>
      <use xlink:href="#DejaVuSans-29" x="557.861328"/>
     </g>
    </g>
   </g>
   <g id="line2d_34">
    <path d="M 92.290909 240.152727 
L 99.602948 244.281316 
L 103.258968 246.590019 
L 106.508763 248.916954 
L 108.94611 250.911026 
L 111.383456 253.198822 
L 113.414578 255.399742 
L 115.4457 257.947112 
L 117.070598 260.298249 
L 118.695495 262.993411 
L 120.320393 266.105698 
L 121.945291 269.71923 
L 123.570188 273.924075 
L 125.195086 278.803168 
L 126.819984 284.406876 
L 128.851106 292.388628 
L 131.694676 304.785456 
L 134.944472 318.747341 
L 136.975594 326.376591 
L 138.600491 331.661404 
L 140.225389 336.225027 
L 141.850287 340.134096 
L 143.475184 343.476265 
L 145.100082 346.339969 
L 146.72498 348.804965 
L 148.756102 351.427992 
L 150.787224 353.640938 
L 152.818346 355.527129 
L 155.255692 357.448533 
L 157.693038 359.074816 
L 160.536609 360.680853 
L 163.38018 362.041054 
L 166.629975 363.361144 
L 170.285995 364.613986 
L 174.754464 365.890446 
L 179.629156 367.042124 
L 185.316298 368.149916 
L 191.815889 369.186643 
L 199.534152 370.186767 
L 208.471089 371.119676 
L 219.439148 372.031603 
L 232.438329 372.8815 
L 248.281081 373.686847 
L 267.779853 374.445945 
L 292.153317 375.160018 
L 322.620147 375.819409 
L 361.61769 376.429986 
L 412.395741 376.990391 
L 479.828993 377.49933 
L 498.109091 377.607273 
L 498.109091 377.607273 
" clip-path="url(#p01734ce000)" style="fill: none; stroke: #1f77b4; stroke-width: 1.5; stroke-linecap: square"/>
   </g>
   <g id="line2d_35">
    <path d="M 92.290909 240.152727 
L 124.788862 254.27659 
L 142.662735 261.793169 
L 158.099263 268.044519 
L 172.317117 273.562389 
L 185.722523 278.529761 
L 198.721704 283.114837 
L 211.720885 287.464844 
L 224.720066 291.578189 
L 237.719247 295.457491 
L 250.718428 299.108638 
L 264.123833 302.643716 
L 277.935463 306.052933 
L 292.153317 309.329245 
L 306.777396 312.468133 
L 321.807699 315.467339 
L 337.65045 318.398929 
L 353.899427 321.181081 
L 370.960852 323.879234 
L 389.24095 326.540386 
L 408.333497 329.091423 
L 428.644717 331.576159 
L 450.174611 333.98057 
L 472.923178 336.294179 
L 497.296642 338.545451 
L 498.109091 338.616784 
L 498.109091 338.616784 
" clip-path="url(#p01734ce000)" style="fill: none; stroke: #ff7f0e; stroke-width: 1.5; stroke-linecap: square"/>
   </g>
   <g id="line2d_36">
    <path d="M 92.290909 240.152727 
L 127.632432 244.135733 
L 145.506306 246.373578 
L 160.130385 248.424932 
L 172.317117 250.353974 
L 182.878952 252.242811 
L 192.222113 254.129766 
L 200.752826 256.074387 
L 208.471089 258.05749 
L 215.376904 260.048756 
L 221.876495 262.144622 
L 227.969861 264.337515 
L 233.657002 266.613599 
L 238.93792 268.952112 
L 244.218837 271.53289 
L 249.09353 274.151411 
L 253.968223 277.014568 
L 258.842916 280.135419 
L 263.717609 283.519853 
L 268.592301 287.163134 
L 273.873219 291.37992 
L 279.966585 296.533951 
L 288.903522 304.423552 
L 299.465356 313.693965 
L 305.558722 318.747341 
L 310.83964 322.851111 
L 315.714333 326.376591 
L 320.589025 329.636351 
L 325.463718 332.630227 
L 330.338411 335.367275 
L 335.213104 337.862485 
L 340.494021 340.313914 
L 345.774939 342.52776 
L 351.46208 344.674448 
L 357.555446 346.733337 
L 364.055037 348.690086 
L 370.960852 350.53599 
L 378.679115 352.357227 
L 386.803604 354.042018 
L 395.740541 355.665942 
L 405.489926 357.210971 
L 416.457985 358.718194 
L 428.644717 360.161059 
L 442.050123 361.522758 
L 457.48665 362.859413 
L 474.9543 364.138545 
L 494.859296 365.363277 
L 498.109091 365.543783 
L 498.109091 365.543783 
" clip-path="url(#p01734ce000)" style="fill: none; stroke: #2ca02c; stroke-width: 1.5; stroke-linecap: square"/>
   </g>
   <g id="line2d_37">
    <path d="M 92.290909 240.152727 
L 132.507125 248.853329 
L 154.849468 253.451218 
L 174.348239 257.241439 
L 192.628337 260.573649 
L 210.502211 263.60991 
L 228.376085 266.422712 
L 246.656183 269.072214 
L 265.342506 271.553293 
L 284.841278 273.912825 
L 305.152498 276.141578 
L 326.276167 278.234979 
L 348.618509 280.226661 
L 372.585749 282.138892 
L 398.177887 283.957377 
L 425.801147 285.697133 
L 455.861753 287.366222 
L 488.76593 288.967574 
L 498.109091 289.384756 
L 498.109091 289.384756 
" clip-path="url(#p01734ce000)" style="fill: none; stroke: #d62728; stroke-width: 1.5; stroke-linecap: square"/>
   </g>
   <g id="line2d_38">
    <path d="M 92.290909 240.152727 
L 100.415397 257.725182 
L 105.29009 267.721938 
L 109.352334 275.547474 
L 113.008354 282.13179 
L 116.664373 288.254096 
L 120.320393 293.909437 
L 123.570188 298.552872 
L 126.819984 302.850683 
L 130.476003 307.296682 
L 134.132023 311.360642 
L 137.788043 315.074844 
L 141.444062 318.471171 
L 145.100082 321.580027 
L 149.162326 324.731505 
L 153.22457 327.598356 
L 157.693038 330.460843 
L 162.161507 333.054354 
L 167.0362 335.614783 
L 171.910893 337.929763 
L 177.19181 340.19646 
L 182.878952 342.394118 
L 188.972318 344.507286 
L 195.471908 346.525247 
L 202.377723 348.441335 
L 210.095987 350.346961 
L 218.220475 352.125776 
L 227.157412 353.856832 
L 236.906798 355.520262 
L 247.874857 357.159434 
L 259.655364 358.694978 
L 273.06077 360.211442 
L 287.684848 361.63904 
L 304.340049 363.034258 
L 323.026372 364.367675 
L 344.150041 365.643333 
L 368.117281 366.85959 
L 395.334316 368.011996 
L 426.613595 369.108385 
L 462.767568 370.148008 
L 498.109091 370.987182 
L 498.109091 370.987182 
" clip-path="url(#p01734ce000)" style="fill: none; stroke: #9467bd; stroke-width: 1.5; stroke-linecap: square"/>
   </g>
   <g id="line2d_39">
    <path d="M 92.290909 240.152727 
L 101.227846 249.791497 
L 106.102539 254.739972 
L 110.571007 258.972598 
L 114.633251 262.531651 
L 118.695495 265.80297 
L 122.75774 268.788909 
L 126.819984 271.501705 
L 130.882228 273.95962 
L 135.350696 276.394352 
L 139.819165 278.575837 
L 144.693857 280.700311 
L 149.974775 282.739653 
L 155.255692 284.543907 
L 160.942834 286.262252 
L 167.442424 287.98467 
L 174.348239 289.578897 
L 182.066503 291.123505 
L 190.597215 292.592955 
L 199.940377 293.971177 
L 210.502211 295.296917 
L 222.282719 296.546118 
L 235.688124 297.738249 
L 251.124652 298.878565 
L 268.592301 299.941502 
L 288.903522 300.950776 
L 312.870762 301.911414 
L 340.900246 302.806771 
L 374.616871 303.653655 
L 415.239312 304.443306 
L 464.79869 305.176614 
L 498.109091 305.569955 
L 498.109091 305.569955 
" clip-path="url(#p01734ce000)" style="fill: none; stroke: #8c564b; stroke-width: 1.5; stroke-linecap: square"/>
   </g>
   <g id="patch_9">
    <path d="M 72 384.48 
L 72 233.28 
" style="fill: none; stroke: #000000; stroke-width: 0.8; stroke-linejoin: miter; stroke-linecap: square"/>
   </g>
   <g id="patch_10">
    <path d="M 518.4 384.48 
L 518.4 233.28 
" style="fill: none; stroke: #000000; stroke-width: 0.8; stroke-linejoin: miter; stroke-linecap: square"/>
   </g>
   <g id="patch_11">
    <path d="M 72 384.48 
L 518.4 384.48 
" style="fill: none; stroke: #000000; stroke-width: 0.8; stroke-linejoin: miter; stroke-linecap: square"/>
   </g>
   <g id="patch_12">
    <path d="M 72 233.28 
L 518.4 233.28 
" style="fill: none; stroke: #000000; stroke-width: 0.8; stroke-linejoin: miter; stroke-linecap: square"/>
   </g>
   <g id="legend_2">
    <g id="patch_13">
     <path d="M 79 379.48 
L 140.0625 379.48 
Q 142.0625 379.48 142.0625 377.48 
L 142.0625 290.41125 
Q 142.0625 288.41125 140.0625 288.41125 
L 79 288.41125 
Q 77 288.41125 77 290.41125 
L 77 377.48 
Q 77 379.48 79 379.48 
z
" style="fill: #ffffff; opacity: 0.8; stroke: #cccccc; stroke-linejoin: miter"/>
    </g>
    <g id="line2d_40">
     <path d="M 81 296.509688 
L 91 296.509688 
L 101 296.509688 
" style="fill: none; stroke: #1f77b4; stroke-width: 1.5; stroke-linecap: square"/>
    </g>
    <g id="text_32">
     <!-- sys16 -->
     <g transform="translate(109 300.009688) scale(0.1 -0.1)">
      <use xlink:href="#DejaVuSans-73"/>
      <use xlink:href="#DejaVuSans-79" x="52.099609"/>
      <use xlink:href="#DejaVuSans-73" x="111.279297"/>
      <use xlink:href="#DejaVuSans-31" x="163.378906"/>
      <use xlink:href="#DejaVuSans-36" x="227.001953"/>
     </g>
    </g>
    <g id="line2d_41">
     <path d="M 81 311.187813 
L 91 311.187813 
L 101 311.187813 
" style="fill: none; stroke: #ff7f0e; stroke-width: 1.5; stroke-linecap: square"/>
    </g>
    <g id="text_33">
     <!-- sys17 -->
     <g transform="translate(109 314.687813) scale(0.1 -0.1)">
      <use xlink:href="#DejaVuSans-73"/>
      <use xlink:href="#DejaVuSans-79" x="52.099609"/>
      <use xlink:href="#DejaVuSans-73" x="111.279297"/>
      <use xlink:href="#DejaVuSans-31" x="163.378906"/>
      <use xlink:href="#DejaVuSans-37" x="227.001953"/>
     </g>
    </g>
    <g id="line2d_42">
     <path d="M 81 325.865938 
L 91 325.865938 
L 101 325.865938 
" style="fill: none; stroke: #2ca02c; stroke-width: 1.5; stroke-linecap: square"/>
    </g>
    <g id="text_34">
     <!-- sys18 -->
     <g transform="translate(109 329.365938) scale(0.1 -0.1)">
      <use xlink:href="#DejaVuSans-73"/>
      <use xlink:href="#DejaVuSans-79" x="52.099609"/>
      <use xlink:href="#DejaVuSans-73" x="111.279297"/>
      <use xlink:href="#DejaVuSans-31" x="163.378906"/>
      <use xlink:href="#DejaVuSans-38" x="227.001953"/>
     </g>
    </g>
    <g id="line2d_43">
     <path d="M 81 340.544062 
L 91 340.544062 
L 101 340.544062 
" style="fill: none; stroke: #d62728; stroke-width: 1.5; stroke-linecap: square"/>
    </g>
    <g id="text_35">
     <!-- sys19 -->
     <g transform="translate(109 344.044062) scale(0.1 -0.1)">
      <use xlink:href="#DejaVuSans-73"/>
      <use xlink:href="#DejaVuSans-79" x="52.099609"/>
      <use xlink:href="#DejaVuSans-73" x="111.279297"/>
      <use xlink:href="#DejaVuSans-31" x="163.378906"/>
      <use xlink:href="#DejaVuSans-39" x="227.001953"/>
     </g>
    </g>
    <g id="line2d_44">
     <path d="M 81 355.222188 
L 91 355.222188 
L 101 355.222188 
" style="fill: none; stroke: #9467bd; stroke-width: 1.5; stroke-linecap: square"/>
    </g>
    <g id="text_36">
     <!-- sys20 -->
     <g transform="translate(109 358.722188) scale(0.1 -0.1)">
      <use xlink:href="#DejaVuSans-73"/>
      <use xlink:href="#DejaVuSans-79" x="52.099609"/>
      <use xlink:href="#DejaVuSans-73" x="111.279297"/>
      <use xlink:href="#DejaVuSans-32" x="163.378906"/>
      <use xlink:href="#DejaVuSans-30" x="227.001953"/>
     </g>
    </g>
    <g id="line2d_45">
     <path d="M 81 369.900313 
L 91 369.900313 
L 101 369.900313 
" style="fill: none; stroke: #8c564b; stroke-width: 1.5; stroke-linecap: square"/>
    </g>
    <g id="text_37">
     <!-- sys21 -->
     <g transform="translate(109 373.400313) scale(0.1 -0.1)">
      <use xlink:href="#DejaVuSans-73"/>
      <use xlink:href="#DejaVuSans-79" x="52.099609"/>
      <use xlink:href="#DejaVuSans-73" x="111.279297"/>
      <use xlink:href="#DejaVuSans-32" x="163.378906"/>
      <use xlink:href="#DejaVuSans-31" x="227.001953"/>
     </g>
    </g>
   </g>
  </g>
 </g>
 <defs>
  <clipPath id="p41b61490b0">
   <rect x="72" y="51.84" width="446.4" height="151.2"/>
  </clipPath>
  <clipPath id="p01734ce000">
   <rect x="72" y="233.28" width="446.4" height="151.2"/>
  </clipPath>
 </defs>
</svg>
