<?xml version="1.0" encoding="utf-8" standalone="no"?>
<!DOCTYPE svg PUBLIC "-//W3C//DTD SVG 1.1//EN"
  "http://www.w3.org/Graphics/SVG/1.1/DTD/svg11.dtd">
<svg xmlns:xlink="http://www.w3.org/1999/xlink" width="576pt" height="432pt" viewBox="0 0 576 432" xmlns="http://www.w3.org/2000/svg" version="1.1">
 <metadata>
  <rdf:RDF xmlns:dc="http://purl.org/dc/elements/1.1/" xmlns:cc="http://creativecommons.org/ns#" xmlns:rdf="http://www.w3.org/1999/02/22-rdf-syntax-ns#">
   <cc:Work>
    <dc:type rdf:resource="http://purl.org/dc/dcmitype/StillImage"/>
    <dc:date>2023-05-11T17:32:57.794467</dc:date>
    <dc:format>image/svg+xml</dc:format>
    <dc:creator>
     <cc:Agent>
      <dc:title>Matplotlib v3.7.1, https://matplotlib.org/</dc:title>
     </cc:Agent>
    </dc:creator>
   </cc:Work>
  </rdf:RDF>
 </metadata>
 <defs>
  <style type="text/css">*{stroke-linejoin: round; stroke-linecap: butt}</style>
 </defs>
 <g id="figure_1">
  <g id="patch_1">
   <path d="M 0 432 
L 576 432 
L 576 0 
L 0 0 
z
" style="fill: #ffffff"/>
  </g>
  <g id="axes_1">
   <g id="patch_2">
    <path d="M 72 384.48 
L 518.4 384.48 
L 518.4 51.84 
L 72 51.84 
z
" style="fill: #ffffff"/>
   </g>
   <g id="matplotlib.axis_1">
    <g id="xtick_1">
     <g id="line2d_1">
      <defs>
       <path id="m98eaa5714c" d="M 0 0 
L 0 3.5 
" style="stroke: #000000; stroke-width: 0.8"/>
      </defs>
      <g>
       <use xlink:href="#m98eaa5714c" x="92.290909" y="384.48" style="stroke: #000000; stroke-width: 0.8"/>
      </g>
     </g>
     <g id="text_1">
      <!-- 0.0 -->
      <g transform="translate(84.339347 399.078438) scale(0.1 -0.1)">
       <defs>
        <path id="DejaVuSans-30" d="M 2034 4250 
Q 1547 4250 1301 3770 
Q 1056 3291 1056 2328 
Q 1056 1369 1301 889 
Q 1547 409 2034 409 
Q 2525 409 2770 889 
Q 3016 1369 3016 2328 
Q 3016 3291 2770 3770 
Q 2525 4250 2034 4250 
z
M 2034 4750 
Q 2819 4750 3233 4129 
Q 3647 3509 3647 2328 
Q 3647 1150 3233 529 
Q 2819 -91 2034 -91 
Q 1250 -91 836 529 
Q 422 1150 422 2328 
Q 422 3509 836 4129 
Q 1250 4750 2034 4750 
z
" transform="scale(0.015625)"/>
        <path id="DejaVuSans-2e" d="M 684 794 
L 1344 794 
L 1344 0 
L 684 0 
L 684 794 
z
" transform="scale(0.015625)"/>
       </defs>
       <use xlink:href="#DejaVuSans-30"/>
       <use xlink:href="#DejaVuSans-2e" x="63.623047"/>
       <use xlink:href="#DejaVuSans-30" x="95.410156"/>
      </g>
     </g>
    </g>
    <g id="xtick_2">
     <g id="line2d_2">
      <g>
       <use xlink:href="#m98eaa5714c" x="143.018182" y="384.48" style="stroke: #000000; stroke-width: 0.8"/>
      </g>
     </g>
     <g id="text_2">
      <!-- 2.5 -->
      <g transform="translate(135.066619 399.078438) scale(0.1 -0.1)">
       <defs>
        <path id="DejaVuSans-32" d="M 1228 531 
L 3431 531 
L 3431 0 
L 469 0 
L 469 531 
Q 828 903 1448 1529 
Q 2069 2156 2228 2338 
Q 2531 2678 2651 2914 
Q 2772 3150 2772 3378 
Q 2772 3750 2511 3984 
Q 2250 4219 1831 4219 
Q 1534 4219 1204 4116 
Q 875 4013 500 3803 
L 500 4441 
Q 881 4594 1212 4672 
Q 1544 4750 1819 4750 
Q 2544 4750 2975 4387 
Q 3406 4025 3406 3419 
Q 3406 3131 3298 2873 
Q 3191 2616 2906 2266 
Q 2828 2175 2409 1742 
Q 1991 1309 1228 531 
z
" transform="scale(0.015625)"/>
        <path id="DejaVuSans-35" d="M 691 4666 
L 3169 4666 
L 3169 4134 
L 1269 4134 
L 1269 2991 
Q 1406 3038 1543 3061 
Q 1681 3084 1819 3084 
Q 2600 3084 3056 2656 
Q 3513 2228 3513 1497 
Q 3513 744 3044 326 
Q 2575 -91 1722 -91 
Q 1428 -91 1123 -41 
Q 819 9 494 109 
L 494 744 
Q 775 591 1075 516 
Q 1375 441 1709 441 
Q 2250 441 2565 725 
Q 2881 1009 2881 1497 
Q 2881 1984 2565 2268 
Q 2250 2553 1709 2553 
Q 1456 2553 1204 2497 
Q 953 2441 691 2322 
L 691 4666 
z
" transform="scale(0.015625)"/>
       </defs>
       <use xlink:href="#DejaVuSans-32"/>
       <use xlink:href="#DejaVuSans-2e" x="63.623047"/>
       <use xlink:href="#DejaVuSans-35" x="95.410156"/>
      </g>
     </g>
    </g>
    <g id="xtick_3">
     <g id="line2d_3">
      <g>
       <use xlink:href="#m98eaa5714c" x="193.745455" y="384.48" style="stroke: #000000; stroke-width: 0.8"/>
      </g>
     </g>
     <g id="text_3">
      <!-- 5.0 -->
      <g transform="translate(185.793892 399.078438) scale(0.1 -0.1)">
       <use xlink:href="#DejaVuSans-35"/>
       <use xlink:href="#DejaVuSans-2e" x="63.623047"/>
       <use xlink:href="#DejaVuSans-30" x="95.410156"/>
      </g>
     </g>
    </g>
    <g id="xtick_4">
     <g id="line2d_4">
      <g>
       <use xlink:href="#m98eaa5714c" x="244.472727" y="384.48" style="stroke: #000000; stroke-width: 0.8"/>
      </g>
     </g>
     <g id="text_4">
      <!-- 7.5 -->
      <g transform="translate(236.521165 399.078438) scale(0.1 -0.1)">
       <defs>
        <path id="DejaVuSans-37" d="M 525 4666 
L 3525 4666 
L 3525 4397 
L 1831 0 
L 1172 0 
L 2766 4134 
L 525 4134 
L 525 4666 
z
" transform="scale(0.015625)"/>
       </defs>
       <use xlink:href="#DejaVuSans-37"/>
       <use xlink:href="#DejaVuSans-2e" x="63.623047"/>
       <use xlink:href="#DejaVuSans-35" x="95.410156"/>
      </g>
     </g>
    </g>
    <g id="xtick_5">
     <g id="line2d_5">
      <g>
       <use xlink:href="#m98eaa5714c" x="295.2" y="384.48" style="stroke: #000000; stroke-width: 0.8"/>
      </g>
     </g>
     <g id="text_5">
      <!-- 10.0 -->
      <g transform="translate(284.067187 399.078438) scale(0.1 -0.1)">
       <defs>
        <path id="DejaVuSans-31" d="M 794 531 
L 1825 531 
L 1825 4091 
L 703 3866 
L 703 4441 
L 1819 4666 
L 2450 4666 
L 2450 531 
L 3481 531 
L 3481 0 
L 794 0 
L 794 531 
z
" transform="scale(0.015625)"/>
       </defs>
       <use xlink:href="#DejaVuSans-31"/>
       <use xlink:href="#DejaVuSans-30" x="63.623047"/>
       <use xlink:href="#DejaVuSans-2e" x="127.246094"/>
       <use xlink:href="#DejaVuSans-30" x="159.033203"/>
      </g>
     </g>
    </g>
    <g id="xtick_6">
     <g id="line2d_6">
      <g>
       <use xlink:href="#m98eaa5714c" x="345.927273" y="384.48" style="stroke: #000000; stroke-width: 0.8"/>
      </g>
     </g>
     <g id="text_6">
      <!-- 12.5 -->
      <g transform="translate(334.79446 399.078438) scale(0.1 -0.1)">
       <use xlink:href="#DejaVuSans-31"/>
       <use xlink:href="#DejaVuSans-32" x="63.623047"/>
       <use xlink:href="#DejaVuSans-2e" x="127.246094"/>
       <use xlink:href="#DejaVuSans-35" x="159.033203"/>
      </g>
     </g>
    </g>
    <g id="xtick_7">
     <g id="line2d_7">
      <g>
       <use xlink:href="#m98eaa5714c" x="396.654545" y="384.48" style="stroke: #000000; stroke-width: 0.8"/>
      </g>
     </g>
     <g id="text_7">
      <!-- 15.0 -->
      <g transform="translate(385.521733 399.078438) scale(0.1 -0.1)">
       <use xlink:href="#DejaVuSans-31"/>
       <use xlink:href="#DejaVuSans-35" x="63.623047"/>
       <use xlink:href="#DejaVuSans-2e" x="127.246094"/>
       <use xlink:href="#DejaVuSans-30" x="159.033203"/>
      </g>
     </g>
    </g>
    <g id="xtick_8">
     <g id="line2d_8">
      <g>
       <use xlink:href="#m98eaa5714c" x="447.381818" y="384.48" style="stroke: #000000; stroke-width: 0.8"/>
      </g>
     </g>
     <g id="text_8">
      <!-- 17.5 -->
      <g transform="translate(436.249006 399.078438) scale(0.1 -0.1)">
       <use xlink:href="#DejaVuSans-31"/>
       <use xlink:href="#DejaVuSans-37" x="63.623047"/>
       <use xlink:href="#DejaVuSans-2e" x="127.246094"/>
       <use xlink:href="#DejaVuSans-35" x="159.033203"/>
      </g>
     </g>
    </g>
    <g id="xtick_9">
     <g id="line2d_9">
      <g>
       <use xlink:href="#m98eaa5714c" x="498.109091" y="384.48" style="stroke: #000000; stroke-width: 0.8"/>
      </g>
     </g>
     <g id="text_9">
      <!-- 20.0 -->
      <g transform="translate(486.976278 399.078438) scale(0.1 -0.1)">
       <use xlink:href="#DejaVuSans-32"/>
       <use xlink:href="#DejaVuSans-30" x="63.623047"/>
       <use xlink:href="#DejaVuSans-2e" x="127.246094"/>
       <use xlink:href="#DejaVuSans-30" x="159.033203"/>
      </g>
     </g>
    </g>
    <g id="text_10">
     <!-- Time (s) -->
     <g transform="translate(274.871094 412.756563) scale(0.1 -0.1)">
      <defs>
       <path id="DejaVuSans-54" d="M -19 4666 
L 3928 4666 
L 3928 4134 
L 2272 4134 
L 2272 0 
L 1638 0 
L 1638 4134 
L -19 4134 
L -19 4666 
z
" transform="scale(0.015625)"/>
       <path id="DejaVuSans-69" d="M 603 3500 
L 1178 3500 
L 1178 0 
L 603 0 
L 603 3500 
z
M 603 4863 
L 1178 4863 
L 1178 4134 
L 603 4134 
L 603 4863 
z
" transform="scale(0.015625)"/>
       <path id="DejaVuSans-6d" d="M 3328 2828 
Q 3544 3216 3844 3400 
Q 4144 3584 4550 3584 
Q 5097 3584 5394 3201 
Q 5691 2819 5691 2113 
L 5691 0 
L 5113 0 
L 5113 2094 
Q 5113 2597 4934 2840 
Q 4756 3084 4391 3084 
Q 3944 3084 3684 2787 
Q 3425 2491 3425 1978 
L 3425 0 
L 2847 0 
L 2847 2094 
Q 2847 2600 2669 2842 
Q 2491 3084 2119 3084 
Q 1678 3084 1418 2786 
Q 1159 2488 1159 1978 
L 1159 0 
L 581 0 
L 581 3500 
L 1159 3500 
L 1159 2956 
Q 1356 3278 1631 3431 
Q 1906 3584 2284 3584 
Q 2666 3584 2933 3390 
Q 3200 3197 3328 2828 
z
" transform="scale(0.015625)"/>
       <path id="DejaVuSans-65" d="M 3597 1894 
L 3597 1613 
L 953 1613 
Q 991 1019 1311 708 
Q 1631 397 2203 397 
Q 2534 397 2845 478 
Q 3156 559 3463 722 
L 3463 178 
Q 3153 47 2828 -22 
Q 2503 -91 2169 -91 
Q 1331 -91 842 396 
Q 353 884 353 1716 
Q 353 2575 817 3079 
Q 1281 3584 2069 3584 
Q 2775 3584 3186 3129 
Q 3597 2675 3597 1894 
z
M 3022 2063 
Q 3016 2534 2758 2815 
Q 2500 3097 2075 3097 
Q 1594 3097 1305 2825 
Q 1016 2553 972 2059 
L 3022 2063 
z
" transform="scale(0.015625)"/>
       <path id="DejaVuSans-20" transform="scale(0.015625)"/>
       <path id="DejaVuSans-28" d="M 1984 4856 
Q 1566 4138 1362 3434 
Q 1159 2731 1159 2009 
Q 1159 1288 1364 580 
Q 1569 -128 1984 -844 
L 1484 -844 
Q 1016 -109 783 600 
Q 550 1309 550 2009 
Q 550 2706 781 3412 
Q 1013 4119 1484 4856 
L 1984 4856 
z
" transform="scale(0.015625)"/>
       <path id="DejaVuSans-73" d="M 2834 3397 
L 2834 2853 
Q 2591 2978 2328 3040 
Q 2066 3103 1784 3103 
Q 1356 3103 1142 2972 
Q 928 2841 928 2578 
Q 928 2378 1081 2264 
Q 1234 2150 1697 2047 
L 1894 2003 
Q 2506 1872 2764 1633 
Q 3022 1394 3022 966 
Q 3022 478 2636 193 
Q 2250 -91 1575 -91 
Q 1294 -91 989 -36 
Q 684 19 347 128 
L 347 722 
Q 666 556 975 473 
Q 1284 391 1588 391 
Q 1994 391 2212 530 
Q 2431 669 2431 922 
Q 2431 1156 2273 1281 
Q 2116 1406 1581 1522 
L 1381 1569 
Q 847 1681 609 1914 
Q 372 2147 372 2553 
Q 372 3047 722 3315 
Q 1072 3584 1716 3584 
Q 2034 3584 2315 3537 
Q 2597 3491 2834 3397 
z
" transform="scale(0.015625)"/>
       <path id="DejaVuSans-29" d="M 513 4856 
L 1013 4856 
Q 1481 4119 1714 3412 
Q 1947 2706 1947 2009 
Q 1947 1309 1714 600 
Q 1481 -109 1013 -844 
L 513 -844 
Q 928 -128 1133 580 
Q 1338 1288 1338 2009 
Q 1338 2731 1133 3434 
Q 928 4138 513 4856 
z
" transform="scale(0.015625)"/>
      </defs>
      <use xlink:href="#DejaVuSans-54"/>
      <use xlink:href="#DejaVuSans-69" x="57.958984"/>
      <use xlink:href="#DejaVuSans-6d" x="85.742188"/>
      <use xlink:href="#DejaVuSans-65" x="183.154297"/>
      <use xlink:href="#DejaVuSans-20" x="244.677734"/>
      <use xlink:href="#DejaVuSans-28" x="276.464844"/>
      <use xlink:href="#DejaVuSans-73" x="315.478516"/>
      <use xlink:href="#DejaVuSans-29" x="367.578125"/>
     </g>
    </g>
   </g>
   <g id="matplotlib.axis_2">
    <g id="ytick_1">
     <g id="line2d_10">
      <defs>
       <path id="mabde2ed085" d="M 0 0 
L -3.5 0 
" style="stroke: #000000; stroke-width: 0.8"/>
      </defs>
      <g>
       <use xlink:href="#mabde2ed085" x="72" y="369.271227" style="stroke: #000000; stroke-width: 0.8"/>
      </g>
     </g>
     <g id="text_11">
      <!-- 0 -->
      <g transform="translate(58.6375 373.070446) scale(0.1 -0.1)">
       <use xlink:href="#DejaVuSans-30"/>
      </g>
     </g>
    </g>
    <g id="ytick_2">
     <g id="line2d_11">
      <g>
       <use xlink:href="#mabde2ed085" x="72" y="311.553653" style="stroke: #000000; stroke-width: 0.8"/>
      </g>
     </g>
     <g id="text_12">
      <!-- 10 -->
      <g transform="translate(52.275 315.352871) scale(0.1 -0.1)">
       <use xlink:href="#DejaVuSans-31"/>
       <use xlink:href="#DejaVuSans-30" x="63.623047"/>
      </g>
     </g>
    </g>
    <g id="ytick_3">
     <g id="line2d_12">
      <g>
       <use xlink:href="#mabde2ed085" x="72" y="253.836078" style="stroke: #000000; stroke-width: 0.8"/>
      </g>
     </g>
     <g id="text_13">
      <!-- 20 -->
      <g transform="translate(52.275 257.635296) scale(0.1 -0.1)">
       <use xlink:href="#DejaVuSans-32"/>
       <use xlink:href="#DejaVuSans-30" x="63.623047"/>
      </g>
     </g>
    </g>
    <g id="ytick_4">
     <g id="line2d_13">
      <g>
       <use xlink:href="#mabde2ed085" x="72" y="196.118503" style="stroke: #000000; stroke-width: 0.8"/>
      </g>
     </g>
     <g id="text_14">
      <!-- 30 -->
      <g transform="translate(52.275 199.917722) scale(0.1 -0.1)">
       <defs>
        <path id="DejaVuSans-33" d="M 2597 2516 
Q 3050 2419 3304 2112 
Q 3559 1806 3559 1356 
Q 3559 666 3084 287 
Q 2609 -91 1734 -91 
Q 1441 -91 1130 -33 
Q 819 25 488 141 
L 488 750 
Q 750 597 1062 519 
Q 1375 441 1716 441 
Q 2309 441 2620 675 
Q 2931 909 2931 1356 
Q 2931 1769 2642 2001 
Q 2353 2234 1838 2234 
L 1294 2234 
L 1294 2753 
L 1863 2753 
Q 2328 2753 2575 2939 
Q 2822 3125 2822 3475 
Q 2822 3834 2567 4026 
Q 2313 4219 1838 4219 
Q 1578 4219 1281 4162 
Q 984 4106 628 3988 
L 628 4550 
Q 988 4650 1302 4700 
Q 1616 4750 1894 4750 
Q 2613 4750 3031 4423 
Q 3450 4097 3450 3541 
Q 3450 3153 3228 2886 
Q 3006 2619 2597 2516 
z
" transform="scale(0.015625)"/>
       </defs>
       <use xlink:href="#DejaVuSans-33"/>
       <use xlink:href="#DejaVuSans-30" x="63.623047"/>
      </g>
     </g>
    </g>
    <g id="ytick_5">
     <g id="line2d_14">
      <g>
       <use xlink:href="#mabde2ed085" x="72" y="138.400928" style="stroke: #000000; stroke-width: 0.8"/>
      </g>
     </g>
     <g id="text_15">
      <!-- 40 -->
      <g transform="translate(52.275 142.200147) scale(0.1 -0.1)">
       <defs>
        <path id="DejaVuSans-34" d="M 2419 4116 
L 825 1625 
L 2419 1625 
L 2419 4116 
z
M 2253 4666 
L 3047 4666 
L 3047 1625 
L 3713 1625 
L 3713 1100 
L 3047 1100 
L 3047 0 
L 2419 0 
L 2419 1100 
L 313 1100 
L 313 1709 
L 2253 4666 
z
" transform="scale(0.015625)"/>
       </defs>
       <use xlink:href="#DejaVuSans-34"/>
       <use xlink:href="#DejaVuSans-30" x="63.623047"/>
      </g>
     </g>
    </g>
    <g id="ytick_6">
     <g id="line2d_15">
      <g>
       <use xlink:href="#mabde2ed085" x="72" y="80.683353" style="stroke: #000000; stroke-width: 0.8"/>
      </g>
     </g>
     <g id="text_16">
      <!-- 50 -->
      <g transform="translate(52.275 84.482572) scale(0.1 -0.1)">
       <use xlink:href="#DejaVuSans-35"/>
       <use xlink:href="#DejaVuSans-30" x="63.623047"/>
      </g>
     </g>
    </g>
    <g id="text_17">
     <!-- Angular Velocity (rad/s) -->
     <g transform="translate(46.195312 276.87875) rotate(-90) scale(0.1 -0.1)">
      <defs>
       <path id="DejaVuSans-41" d="M 2188 4044 
L 1331 1722 
L 3047 1722 
L 2188 4044 
z
M 1831 4666 
L 2547 4666 
L 4325 0 
L 3669 0 
L 3244 1197 
L 1141 1197 
L 716 0 
L 50 0 
L 1831 4666 
z
" transform="scale(0.015625)"/>
       <path id="DejaVuSans-6e" d="M 3513 2113 
L 3513 0 
L 2938 0 
L 2938 2094 
Q 2938 2591 2744 2837 
Q 2550 3084 2163 3084 
Q 1697 3084 1428 2787 
Q 1159 2491 1159 1978 
L 1159 0 
L 581 0 
L 581 3500 
L 1159 3500 
L 1159 2956 
Q 1366 3272 1645 3428 
Q 1925 3584 2291 3584 
Q 2894 3584 3203 3211 
Q 3513 2838 3513 2113 
z
" transform="scale(0.015625)"/>
       <path id="DejaVuSans-67" d="M 2906 1791 
Q 2906 2416 2648 2759 
Q 2391 3103 1925 3103 
Q 1463 3103 1205 2759 
Q 947 2416 947 1791 
Q 947 1169 1205 825 
Q 1463 481 1925 481 
Q 2391 481 2648 825 
Q 2906 1169 2906 1791 
z
M 3481 434 
Q 3481 -459 3084 -895 
Q 2688 -1331 1869 -1331 
Q 1566 -1331 1297 -1286 
Q 1028 -1241 775 -1147 
L 775 -588 
Q 1028 -725 1275 -790 
Q 1522 -856 1778 -856 
Q 2344 -856 2625 -561 
Q 2906 -266 2906 331 
L 2906 616 
Q 2728 306 2450 153 
Q 2172 0 1784 0 
Q 1141 0 747 490 
Q 353 981 353 1791 
Q 353 2603 747 3093 
Q 1141 3584 1784 3584 
Q 2172 3584 2450 3431 
Q 2728 3278 2906 2969 
L 2906 3500 
L 3481 3500 
L 3481 434 
z
" transform="scale(0.015625)"/>
       <path id="DejaVuSans-75" d="M 544 1381 
L 544 3500 
L 1119 3500 
L 1119 1403 
Q 1119 906 1312 657 
Q 1506 409 1894 409 
Q 2359 409 2629 706 
Q 2900 1003 2900 1516 
L 2900 3500 
L 3475 3500 
L 3475 0 
L 2900 0 
L 2900 538 
Q 2691 219 2414 64 
Q 2138 -91 1772 -91 
Q 1169 -91 856 284 
Q 544 659 544 1381 
z
M 1991 3584 
L 1991 3584 
z
" transform="scale(0.015625)"/>
       <path id="DejaVuSans-6c" d="M 603 4863 
L 1178 4863 
L 1178 0 
L 603 0 
L 603 4863 
z
" transform="scale(0.015625)"/>
       <path id="DejaVuSans-61" d="M 2194 1759 
Q 1497 1759 1228 1600 
Q 959 1441 959 1056 
Q 959 750 1161 570 
Q 1363 391 1709 391 
Q 2188 391 2477 730 
Q 2766 1069 2766 1631 
L 2766 1759 
L 2194 1759 
z
M 3341 1997 
L 3341 0 
L 2766 0 
L 2766 531 
Q 2569 213 2275 61 
Q 1981 -91 1556 -91 
Q 1019 -91 701 211 
Q 384 513 384 1019 
Q 384 1609 779 1909 
Q 1175 2209 1959 2209 
L 2766 2209 
L 2766 2266 
Q 2766 2663 2505 2880 
Q 2244 3097 1772 3097 
Q 1472 3097 1187 3025 
Q 903 2953 641 2809 
L 641 3341 
Q 956 3463 1253 3523 
Q 1550 3584 1831 3584 
Q 2591 3584 2966 3190 
Q 3341 2797 3341 1997 
z
" transform="scale(0.015625)"/>
       <path id="DejaVuSans-72" d="M 2631 2963 
Q 2534 3019 2420 3045 
Q 2306 3072 2169 3072 
Q 1681 3072 1420 2755 
Q 1159 2438 1159 1844 
L 1159 0 
L 581 0 
L 581 3500 
L 1159 3500 
L 1159 2956 
Q 1341 3275 1631 3429 
Q 1922 3584 2338 3584 
Q 2397 3584 2469 3576 
Q 2541 3569 2628 3553 
L 2631 2963 
z
" transform="scale(0.015625)"/>
       <path id="DejaVuSans-56" d="M 1831 0 
L 50 4666 
L 709 4666 
L 2188 738 
L 3669 4666 
L 4325 4666 
L 2547 0 
L 1831 0 
z
" transform="scale(0.015625)"/>
       <path id="DejaVuSans-6f" d="M 1959 3097 
Q 1497 3097 1228 2736 
Q 959 2375 959 1747 
Q 959 1119 1226 758 
Q 1494 397 1959 397 
Q 2419 397 2687 759 
Q 2956 1122 2956 1747 
Q 2956 2369 2687 2733 
Q 2419 3097 1959 3097 
z
M 1959 3584 
Q 2709 3584 3137 3096 
Q 3566 2609 3566 1747 
Q 3566 888 3137 398 
Q 2709 -91 1959 -91 
Q 1206 -91 779 398 
Q 353 888 353 1747 
Q 353 2609 779 3096 
Q 1206 3584 1959 3584 
z
" transform="scale(0.015625)"/>
       <path id="DejaVuSans-63" d="M 3122 3366 
L 3122 2828 
Q 2878 2963 2633 3030 
Q 2388 3097 2138 3097 
Q 1578 3097 1268 2742 
Q 959 2388 959 1747 
Q 959 1106 1268 751 
Q 1578 397 2138 397 
Q 2388 397 2633 464 
Q 2878 531 3122 666 
L 3122 134 
Q 2881 22 2623 -34 
Q 2366 -91 2075 -91 
Q 1284 -91 818 406 
Q 353 903 353 1747 
Q 353 2603 823 3093 
Q 1294 3584 2113 3584 
Q 2378 3584 2631 3529 
Q 2884 3475 3122 3366 
z
" transform="scale(0.015625)"/>
       <path id="DejaVuSans-74" d="M 1172 4494 
L 1172 3500 
L 2356 3500 
L 2356 3053 
L 1172 3053 
L 1172 1153 
Q 1172 725 1289 603 
Q 1406 481 1766 481 
L 2356 481 
L 2356 0 
L 1766 0 
Q 1100 0 847 248 
Q 594 497 594 1153 
L 594 3053 
L 172 3053 
L 172 3500 
L 594 3500 
L 594 4494 
L 1172 4494 
z
" transform="scale(0.015625)"/>
       <path id="DejaVuSans-79" d="M 2059 -325 
Q 1816 -950 1584 -1140 
Q 1353 -1331 966 -1331 
L 506 -1331 
L 506 -850 
L 844 -850 
Q 1081 -850 1212 -737 
Q 1344 -625 1503 -206 
L 1606 56 
L 191 3500 
L 800 3500 
L 1894 763 
L 2988 3500 
L 3597 3500 
L 2059 -325 
z
" transform="scale(0.015625)"/>
       <path id="DejaVuSans-64" d="M 2906 2969 
L 2906 4863 
L 3481 4863 
L 3481 0 
L 2906 0 
L 2906 525 
Q 2725 213 2448 61 
Q 2172 -91 1784 -91 
Q 1150 -91 751 415 
Q 353 922 353 1747 
Q 353 2572 751 3078 
Q 1150 3584 1784 3584 
Q 2172 3584 2448 3432 
Q 2725 3281 2906 2969 
z
M 947 1747 
Q 947 1113 1208 752 
Q 1469 391 1925 391 
Q 2381 391 2643 752 
Q 2906 1113 2906 1747 
Q 2906 2381 2643 2742 
Q 2381 3103 1925 3103 
Q 1469 3103 1208 2742 
Q 947 2381 947 1747 
z
" transform="scale(0.015625)"/>
       <path id="DejaVuSans-2f" d="M 1625 4666 
L 2156 4666 
L 531 -594 
L 0 -594 
L 1625 4666 
z
" transform="scale(0.015625)"/>
      </defs>
      <use xlink:href="#DejaVuSans-41"/>
      <use xlink:href="#DejaVuSans-6e" x="68.408203"/>
      <use xlink:href="#DejaVuSans-67" x="131.787109"/>
      <use xlink:href="#DejaVuSans-75" x="195.263672"/>
      <use xlink:href="#DejaVuSans-6c" x="258.642578"/>
      <use xlink:href="#DejaVuSans-61" x="286.425781"/>
      <use xlink:href="#DejaVuSans-72" x="347.705078"/>
      <use xlink:href="#DejaVuSans-20" x="388.818359"/>
      <use xlink:href="#DejaVuSans-56" x="420.605469"/>
      <use xlink:href="#DejaVuSans-65" x="481.263672"/>
      <use xlink:href="#DejaVuSans-6c" x="542.787109"/>
      <use xlink:href="#DejaVuSans-6f" x="570.570312"/>
      <use xlink:href="#DejaVuSans-63" x="631.751953"/>
      <use xlink:href="#DejaVuSans-69" x="686.732422"/>
      <use xlink:href="#DejaVuSans-74" x="714.515625"/>
      <use xlink:href="#DejaVuSans-79" x="753.724609"/>
      <use xlink:href="#DejaVuSans-20" x="812.904297"/>
      <use xlink:href="#DejaVuSans-28" x="844.691406"/>
      <use xlink:href="#DejaVuSans-72" x="883.705078"/>
      <use xlink:href="#DejaVuSans-61" x="924.818359"/>
      <use xlink:href="#DejaVuSans-64" x="986.097656"/>
      <use xlink:href="#DejaVuSans-2f" x="1049.574219"/>
      <use xlink:href="#DejaVuSans-73" x="1083.265625"/>
      <use xlink:href="#DejaVuSans-29" x="1135.365234"/>
     </g>
    </g>
   </g>
   <g id="line2d_16">
    <path d="M 92.290909 66.96 
L 96.390083 73.294318 
L 100.489256 79.495918 
L 104.58843 85.567577 
L 108.687603 91.512014 
L 112.786777 97.331892 
L 116.88595 103.029825 
L 120.985124 108.608368 
L 125.084298 114.070025 
L 129.183471 119.417538 
L 133.282645 124.655257 
L 137.381818 129.785517 
L 141.480992 134.810179 
L 145.580165 139.731092 
L 149.679339 144.550088 
L 153.778512 149.268982 
L 157.877686 153.889577 
L 161.97686 158.413657 
L 166.076033 162.842993 
L 170.175207 167.179339 
L 174.27438 171.424435 
L 178.373554 175.580005 
L 182.472727 179.647755 
L 186.571901 183.629379 
L 190.671074 187.526555 
L 194.770248 191.340943 
L 198.869421 195.074191 
L 202.968595 198.727928 
L 207.067769 202.30377 
L 211.166942 205.803317 
L 215.266116 209.228152 
L 219.365289 212.579846 
L 223.464463 215.85995 
L 227.563636 219.070003 
L 231.66281 222.211526 
L 235.761983 225.286028 
L 239.861157 228.294999 
L 243.960331 231.239914 
L 248.059504 234.122235 
L 252.158678 236.943405 
L 256.257851 239.704855 
L 260.357025 242.407999 
L 264.456198 245.054234 
L 268.555372 247.644943 
L 272.654545 250.181494 
L 276.753719 252.665239 
L 280.852893 255.097515 
L 284.952066 257.479641 
L 289.05124 259.812924 
L 293.150413 262.098654 
L 297.249587 264.338104 
L 301.34876 266.532535 
L 305.447934 268.683189 
L 309.547107 270.790882 
L 313.646281 272.855332 
L 317.745455 274.877221 
L 321.844628 276.857309 
L 325.943802 278.79635 
L 330.042975 280.695089 
L 334.142149 282.554267 
L 338.241322 284.374614 
L 342.340496 286.156855 
L 346.439669 287.901709 
L 350.538843 289.609886 
L 354.638017 291.28209 
L 358.73719 292.919016 
L 362.836364 294.521354 
L 366.935537 296.089787 
L 371.034711 297.62499 
L 375.133884 299.12763 
L 379.233058 300.598368 
L 383.332231 302.037858 
L 387.431405 303.446746 
L 391.530579 304.825673 
L 395.629752 306.17527 
L 399.728926 307.496162 
L 403.828099 308.788969 
L 407.927273 310.0543 
L 412.026446 311.292761 
L 416.12562 312.504947 
L 420.224793 313.691448 
L 424.323967 314.852847 
L 428.42314 315.989719 
L 432.522314 317.102634 
L 436.621488 318.192151 
L 440.720661 319.258825 
L 444.819835 320.303204 
L 448.919008 321.325826 
L 453.018182 322.327226 
L 457.117355 323.307928 
L 461.216529 324.268451 
L 465.315702 325.209306 
L 469.414876 326.130999 
L 473.51405 327.034025 
L 477.613223 327.918835 
L 481.712397 328.78529 
L 485.81157 329.633591 
L 489.910744 330.464117 
L 494.009917 331.277241 
L 498.109091 332.073328 
" clip-path="url(#p3a2f54e0da)" style="fill: none; stroke: #0000ff; stroke-linecap: square"/>
   </g>
   <g id="line2d_17">
    <path d="M 92.290909 67.013227 
L 92.676436 67.169245 
L 93.264873 67.703269 
L 95.2128 69.916399 
L 96.389673 71.472674 
L 98.154982 73.486684 
L 99.047782 74.501743 
L 100.184073 75.691074 
L 101.502982 77.383638 
L 102.882764 78.901526 
L 103.978473 80.295404 
L 105.540873 82.077491 
L 106.433673 83.172862 
L 108.1584 85.040365 
L 109.112073 86.226088 
L 110.755636 88.035955 
L 111.7296 89.23056 
L 113.332582 91.002298 
L 114.225382 92.099921 
L 116.071855 94.093534 
L 116.984945 95.200688 
L 118.669091 97.019392 
L 119.643055 98.252672 
L 121.631564 100.458594 
L 122.504073 101.45211 
L 124.0056 103.004502 
L 125.020145 104.307093 
L 125.953527 105.101075 
L 126.521673 105.712825 
L 128.266691 107.881824 
L 129.443564 109.041568 
L 130.742182 110.688071 
L 132.588655 112.554258 
L 133.481455 113.659091 
L 134.435127 114.460791 
L 135.023564 115.070362 
L 136.788873 117.227172 
L 138.107782 118.483703 
L 139.426691 120.151746 
L 141.313745 122.076174 
L 142.206545 123.224131 
L 143.079055 123.960423 
L 143.809527 124.599419 
L 144.844364 126.017578 
L 145.696582 126.882774 
L 147.116945 128.245677 
L 148.354691 129.83793 
L 149.267782 130.561169 
L 149.876509 131.107361 
L 150.606982 132.154827 
L 151.398327 133.126091 
L 152.250545 133.811751 
L 153.0216 134.44563 
L 153.792655 135.51369 
L 154.584 136.438014 
L 155.578255 137.240633 
L 156.207273 137.815916 
L 157.140655 139.115815 
L 157.932 139.947718 
L 159.758182 141.63314 
L 160.8336 143.032401 
L 161.766982 143.768663 
L 162.6192 144.476433 
L 163.329382 145.499192 
L 164.080145 146.430459 
L 164.952655 147.109974 
L 165.946909 147.912829 
L 166.677382 148.977114 
L 167.407855 149.878226 
L 168.260073 150.541386 
L 169.3152 151.387567 
L 170.086255 152.503535 
L 170.796436 153.345596 
L 171.750109 154.067887 
L 172.703782 154.846612 
L 173.434255 155.896792 
L 174.164727 156.785812 
L 175.057527 157.460503 
L 176.153236 158.338149 
L 176.863418 159.362731 
L 177.614182 160.309978 
L 178.425818 160.940516 
L 179.704145 161.908145 
L 180.394036 162.902449 
L 181.165091 163.877468 
L 181.997018 164.518827 
L 183.255055 165.489249 
L 183.924655 166.438852 
L 184.695709 167.428397 
L 185.466764 168.013928 
L 186.805964 169.016019 
L 187.434982 169.873786 
L 188.348073 171.086334 
L 189.078545 171.618887 
L 190.478618 172.59807 
L 191.067055 173.368898 
L 192.122182 174.798713 
L 192.852655 175.316276 
L 194.171564 176.235132 
L 194.739709 176.93914 
L 195.997745 178.613204 
L 196.870255 179.188013 
L 198.006545 180.006646 
L 198.574691 180.676841 
L 199.974764 182.482672 
L 200.948727 183.087542 
L 201.983564 183.852561 
L 202.551709 184.547636 
L 203.850327 186.245986 
L 204.641673 186.711121 
L 205.676509 187.391352 
L 206.325818 188.034001 
L 207.178036 189.316696 
L 207.827345 190.082196 
L 208.517236 190.500706 
L 209.612945 191.169128 
L 210.404291 191.903837 
L 211.195636 193.065706 
L 211.905818 193.942332 
L 212.555127 194.350823 
L 213.691418 195.037205 
L 214.6248 195.885943 
L 215.477018 197.121446 
L 216.146618 197.912296 
L 216.795927 198.304969 
L 217.871345 198.937005 
L 218.906182 199.876837 
L 219.717818 201.043875 
L 220.428 201.915573 
L 221.036727 202.294516 
L 222.2136 202.976102 
L 223.309309 203.968861 
L 224.100655 205.097051 
L 224.831127 206.000751 
L 225.399273 206.351935 
L 226.6776 207.043002 
L 227.834182 208.092272 
L 228.625527 209.213467 
L 229.376291 210.139174 
L 229.944436 210.483313 
L 231.182182 211.135842 
L 232.359055 212.17752 
L 233.048945 213.072293 
L 234.0432 214.328127 
L 234.611345 214.665619 
L 235.747636 215.264806 
L 236.762182 216.160064 
L 237.553527 217.016732 
L 238.973891 218.724798 
L 239.602909 219.019591 
L 240.475418 219.46764 
L 241.388509 220.252129 
L 242.545091 221.441299 
L 243.884291 223.060447 
L 244.472727 223.358695 
L 245.446691 223.845471 
L 246.380073 224.64886 
L 247.698982 225.997582 
L 248.916436 227.453379 
L 249.484582 227.753538 
L 250.458545 228.206284 
L 251.331055 228.957948 
L 253.218109 230.950666 
L 254.110909 231.972538 
L 254.699345 232.295356 
L 255.774764 232.768845 
L 256.626982 233.5103 
L 258.919855 235.939211 
L 259.630036 236.653669 
L 260.238764 236.951445 
L 261.172145 237.355765 
L 261.922909 237.982276 
L 264.357818 240.440886 
L 265.210036 241.33436 
L 265.839055 241.655306 
L 266.8536 242.093099 
L 267.584073 242.725165 
L 270.4248 245.589345 
L 271.114691 246.239213 
L 271.764 246.532349 
L 272.6568 246.892578 
L 273.3264 247.452563 
L 275.030836 248.961677 
L 275.700436 249.580725 
L 277.262836 251.22428 
L 277.952727 251.502274 
L 278.744073 251.819838 
L 279.433964 252.373382 
L 281.280436 253.994559 
L 281.950036 254.591831 
L 283.613891 256.31111 
L 284.344364 256.597658 
L 285.135709 256.918173 
L 285.8256 257.485583 
L 287.448873 258.957493 
L 288.524291 259.782365 
L 290.350473 261.649682 
L 291.121527 261.902676 
L 291.831709 262.183943 
L 292.5216 262.75302 
L 294.226036 264.323239 
L 295.524655 265.255705 
L 297.188509 266.982039 
L 297.8784 267.245556 
L 298.913236 267.619584 
L 299.664 268.256998 
L 301.287273 269.731546 
L 303.012 271.047882 
L 304.229455 272.363802 
L 304.858473 272.700626 
L 306.603491 273.403721 
L 307.557164 274.338006 
L 308.510836 275.171948 
L 309.403636 275.723925 
L 310.255855 276.260163 
L 310.945745 277.04291 
L 311.899418 278.053817 
L 312.528436 278.421739 
L 313.705309 278.746649 
L 314.314036 279.05407 
L 315.145964 279.820426 
L 316.485164 281.020252 
L 317.621455 281.690144 
L 318.433091 282.172683 
L 319.102691 282.904878 
L 320.076655 283.943155 
L 320.786836 284.360948 
L 323.059418 285.345274 
L 325.230545 287.205713 
L 326.590036 287.961029 
L 327.320509 288.436502 
L 328.071273 289.266454 
L 328.943782 290.14768 
L 329.714836 290.578811 
L 332.068582 291.572333 
L 334.584655 293.62587 
L 336.9384 295.03936 
L 337.952945 296.178164 
L 338.663127 296.771489 
L 339.515345 297.140685 
L 341.240073 297.779801 
L 342.112582 298.374074 
L 344.202545 300.14127 
L 347.753455 302.306933 
L 349.153527 303.662609 
L 349.904291 303.965429 
L 351.913091 304.773138 
L 353.232 305.648135 
L 354.875564 306.988642 
L 355.890109 307.575632 
L 356.945236 308.182514 
L 357.858327 308.667985 
L 358.812 309.179988 
L 359.522182 309.834389 
L 360.8208 311.031045 
L 361.530982 311.311821 
L 362.8296 311.761177 
L 364.067345 312.402244 
L 366.1776 313.836738 
L 367.212436 314.589407 
L 369.038618 315.555576 
L 369.7488 315.96899 
L 370.783636 316.604402 
L 372.204 317.319425 
L 373.015636 318.063811 
L 374.172218 319.044482 
L 374.922982 319.33168 
L 376.282473 319.79539 
L 378.210109 320.865348 
L 379.407273 321.490038 
L 380.218909 322.020254 
L 381.659564 323.147152 
L 383.972727 324.268907 
L 384.804655 324.727507 
L 386.0424 325.547765 
L 387.828 326.275313 
L 388.700509 327.042423 
L 389.715055 327.877911 
L 390.486109 328.274045 
L 392.778982 329.034206 
L 394.239927 329.900705 
L 397.892291 331.876208 
L 399.130036 332.90515 
L 400.144582 333.307095 
L 400.915636 333.686913 
L 402.011345 334.278345 
L 403.391127 334.849606 
L 404.141891 335.45261 
L 404.872364 335.960822 
L 405.481091 336.085782 
L 406.678255 336.291722 
L 407.266691 336.671081 
L 409.397236 338.26179 
L 410.5944 338.839026 
L 411.507491 339.176092 
L 413.090182 339.581898 
L 413.962691 340.025347 
L 415.646836 341.090521 
L 417.858545 342.140796 
L 419.055709 342.743166 
L 420.394909 343.209883 
L 421.551491 343.999896 
L 423.418255 345.426449 
L 425.467636 346.054076 
L 426.522764 346.643524 
L 427.577891 347.237716 
L 428.328655 347.358551 
L 429.079418 347.54284 
L 429.769309 347.982342 
L 432.386836 349.844459 
L 432.995564 349.960108 
L 434.882618 350.084062 
L 436.729091 351.050117 
L 438.798764 352.160075 
L 439.752436 352.518522 
L 440.766982 353.218225 
L 441.740945 353.778467 
L 442.7352 354.059211 
L 443.607709 354.395719 
L 445.028073 355.029809 
L 445.799127 355.047627 
L 446.691927 355.099965 
L 447.402109 355.401828 
L 449.492073 356.431675 
L 450.953018 357.047447 
L 451.825527 357.737541 
L 452.982109 358.610886 
L 453.814036 358.932436 
L 455.437309 359.499732 
L 456.553309 360.222381 
L 457.6896 360.862378 
L 459.252 361.411434 
L 462.498545 362.372231 
L 463.634836 362.804298 
L 466.008873 363.827847 
L 467.895927 364.22241 
L 469.417745 364.674656 
L 471.041018 365.406541 
L 476.580436 368.121131 
L 479.319709 369.204678 
L 479.948727 369.36 
L 479.948727 369.36 
" clip-path="url(#p3a2f54e0da)" style="fill: none; stroke: #ff0000; stroke-linecap: square"/>
   </g>
   <g id="patch_3">
    <path d="M 72 384.48 
L 72 51.84 
" style="fill: none; stroke: #000000; stroke-width: 0.8; stroke-linejoin: miter; stroke-linecap: square"/>
   </g>
   <g id="patch_4">
    <path d="M 518.4 384.48 
L 518.4 51.84 
" style="fill: none; stroke: #000000; stroke-width: 0.8; stroke-linejoin: miter; stroke-linecap: square"/>
   </g>
   <g id="patch_5">
    <path d="M 72 384.48 
L 518.4 384.48 
" style="fill: none; stroke: #000000; stroke-width: 0.8; stroke-linejoin: miter; stroke-linecap: square"/>
   </g>
   <g id="patch_6">
    <path d="M 72 51.84 
L 518.4 51.84 
" style="fill: none; stroke: #000000; stroke-width: 0.8; stroke-linejoin: miter; stroke-linecap: square"/>
   </g>
   <g id="text_18">
    <!-- Free Response Data -->
    <g transform="translate(235.512187 45.84) scale(0.12 -0.12)">
     <defs>
      <path id="DejaVuSans-46" d="M 628 4666 
L 3309 4666 
L 3309 4134 
L 1259 4134 
L 1259 2759 
L 3109 2759 
L 3109 2228 
L 1259 2228 
L 1259 0 
L 628 0 
L 628 4666 
z
" transform="scale(0.015625)"/>
      <path id="DejaVuSans-52" d="M 2841 2188 
Q 3044 2119 3236 1894 
Q 3428 1669 3622 1275 
L 4263 0 
L 3584 0 
L 2988 1197 
Q 2756 1666 2539 1819 
Q 2322 1972 1947 1972 
L 1259 1972 
L 1259 0 
L 628 0 
L 628 4666 
L 2053 4666 
Q 2853 4666 3247 4331 
Q 3641 3997 3641 3322 
Q 3641 2881 3436 2590 
Q 3231 2300 2841 2188 
z
M 1259 4147 
L 1259 2491 
L 2053 2491 
Q 2509 2491 2742 2702 
Q 2975 2913 2975 3322 
Q 2975 3731 2742 3939 
Q 2509 4147 2053 4147 
L 1259 4147 
z
" transform="scale(0.015625)"/>
      <path id="DejaVuSans-70" d="M 1159 525 
L 1159 -1331 
L 581 -1331 
L 581 3500 
L 1159 3500 
L 1159 2969 
Q 1341 3281 1617 3432 
Q 1894 3584 2278 3584 
Q 2916 3584 3314 3078 
Q 3713 2572 3713 1747 
Q 3713 922 3314 415 
Q 2916 -91 2278 -91 
Q 1894 -91 1617 61 
Q 1341 213 1159 525 
z
M 3116 1747 
Q 3116 2381 2855 2742 
Q 2594 3103 2138 3103 
Q 1681 3103 1420 2742 
Q 1159 2381 1159 1747 
Q 1159 1113 1420 752 
Q 1681 391 2138 391 
Q 2594 391 2855 752 
Q 3116 1113 3116 1747 
z
" transform="scale(0.015625)"/>
      <path id="DejaVuSans-44" d="M 1259 4147 
L 1259 519 
L 2022 519 
Q 2988 519 3436 956 
Q 3884 1394 3884 2338 
Q 3884 3275 3436 3711 
Q 2988 4147 2022 4147 
L 1259 4147 
z
M 628 4666 
L 1925 4666 
Q 3281 4666 3915 4102 
Q 4550 3538 4550 2338 
Q 4550 1131 3912 565 
Q 3275 0 1925 0 
L 628 0 
L 628 4666 
z
" transform="scale(0.015625)"/>
     </defs>
     <use xlink:href="#DejaVuSans-46"/>
     <use xlink:href="#DejaVuSans-72" x="50.269531"/>
     <use xlink:href="#DejaVuSans-65" x="89.132812"/>
     <use xlink:href="#DejaVuSans-65" x="150.65625"/>
     <use xlink:href="#DejaVuSans-20" x="212.179688"/>
     <use xlink:href="#DejaVuSans-52" x="243.966797"/>
     <use xlink:href="#DejaVuSans-65" x="308.949219"/>
     <use xlink:href="#DejaVuSans-73" x="370.472656"/>
     <use xlink:href="#DejaVuSans-70" x="422.572266"/>
     <use xlink:href="#DejaVuSans-6f" x="486.048828"/>
     <use xlink:href="#DejaVuSans-6e" x="547.230469"/>
     <use xlink:href="#DejaVuSans-73" x="610.609375"/>
     <use xlink:href="#DejaVuSans-65" x="662.708984"/>
     <use xlink:href="#DejaVuSans-20" x="724.232422"/>
     <use xlink:href="#DejaVuSans-44" x="756.019531"/>
     <use xlink:href="#DejaVuSans-61" x="833.021484"/>
     <use xlink:href="#DejaVuSans-74" x="894.300781"/>
     <use xlink:href="#DejaVuSans-61" x="933.509766"/>
    </g>
   </g>
   <g id="legend_1">
    <g id="patch_7">
     <path d="M 385.659375 89.19625 
L 511.4 89.19625 
Q 513.4 89.19625 513.4 87.19625 
L 513.4 58.84 
Q 513.4 56.84 511.4 56.84 
L 385.659375 56.84 
Q 383.659375 56.84 383.659375 58.84 
L 383.659375 87.19625 
Q 383.659375 89.19625 385.659375 89.19625 
z
" style="fill: #ffffff; opacity: 0.8; stroke: #cccccc; stroke-linejoin: miter"/>
    </g>
    <g id="line2d_18">
     <path d="M 387.659375 64.938437 
L 397.659375 64.938437 
L 407.659375 64.938437 
" style="fill: none; stroke: #0000ff; stroke-linecap: square"/>
    </g>
    <g id="text_19">
     <!-- Simple ODE45 -->
     <g transform="translate(415.659375 68.438437) scale(0.1 -0.1)">
      <defs>
       <path id="DejaVuSans-53" d="M 3425 4513 
L 3425 3897 
Q 3066 4069 2747 4153 
Q 2428 4238 2131 4238 
Q 1616 4238 1336 4038 
Q 1056 3838 1056 3469 
Q 1056 3159 1242 3001 
Q 1428 2844 1947 2747 
L 2328 2669 
Q 3034 2534 3370 2195 
Q 3706 1856 3706 1288 
Q 3706 609 3251 259 
Q 2797 -91 1919 -91 
Q 1588 -91 1214 -16 
Q 841 59 441 206 
L 441 856 
Q 825 641 1194 531 
Q 1563 422 1919 422 
Q 2459 422 2753 634 
Q 3047 847 3047 1241 
Q 3047 1584 2836 1778 
Q 2625 1972 2144 2069 
L 1759 2144 
Q 1053 2284 737 2584 
Q 422 2884 422 3419 
Q 422 4038 858 4394 
Q 1294 4750 2059 4750 
Q 2388 4750 2728 4690 
Q 3069 4631 3425 4513 
z
" transform="scale(0.015625)"/>
       <path id="DejaVuSans-4f" d="M 2522 4238 
Q 1834 4238 1429 3725 
Q 1025 3213 1025 2328 
Q 1025 1447 1429 934 
Q 1834 422 2522 422 
Q 3209 422 3611 934 
Q 4013 1447 4013 2328 
Q 4013 3213 3611 3725 
Q 3209 4238 2522 4238 
z
M 2522 4750 
Q 3503 4750 4090 4092 
Q 4678 3434 4678 2328 
Q 4678 1225 4090 567 
Q 3503 -91 2522 -91 
Q 1538 -91 948 565 
Q 359 1222 359 2328 
Q 359 3434 948 4092 
Q 1538 4750 2522 4750 
z
" transform="scale(0.015625)"/>
       <path id="DejaVuSans-45" d="M 628 4666 
L 3578 4666 
L 3578 4134 
L 1259 4134 
L 1259 2753 
L 3481 2753 
L 3481 2222 
L 1259 2222 
L 1259 531 
L 3634 531 
L 3634 0 
L 628 0 
L 628 4666 
z
" transform="scale(0.015625)"/>
      </defs>
      <use xlink:href="#DejaVuSans-53"/>
      <use xlink:href="#DejaVuSans-69" x="63.476562"/>
      <use xlink:href="#DejaVuSans-6d" x="91.259766"/>
      <use xlink:href="#DejaVuSans-70" x="188.671875"/>
      <use xlink:href="#DejaVuSans-6c" x="252.148438"/>
      <use xlink:href="#DejaVuSans-65" x="279.931641"/>
      <use xlink:href="#DejaVuSans-20" x="341.455078"/>
      <use xlink:href="#DejaVuSans-4f" x="373.242188"/>
      <use xlink:href="#DejaVuSans-44" x="451.953125"/>
      <use xlink:href="#DejaVuSans-45" x="528.955078"/>
      <use xlink:href="#DejaVuSans-34" x="592.138672"/>
      <use xlink:href="#DejaVuSans-35" x="655.761719"/>
     </g>
    </g>
    <g id="line2d_19">
     <path d="M 387.659375 79.616562 
L 397.659375 79.616562 
L 407.659375 79.616562 
" style="fill: none; stroke: #ff0000; stroke-linecap: square"/>
    </g>
    <g id="text_20">
     <!-- Experimental Data -->
     <g transform="translate(415.659375 83.116562) scale(0.1 -0.1)">
      <defs>
       <path id="DejaVuSans-78" d="M 3513 3500 
L 2247 1797 
L 3578 0 
L 2900 0 
L 1881 1375 
L 863 0 
L 184 0 
L 1544 1831 
L 300 3500 
L 978 3500 
L 1906 2253 
L 2834 3500 
L 3513 3500 
z
" transform="scale(0.015625)"/>
      </defs>
      <use xlink:href="#DejaVuSans-45"/>
      <use xlink:href="#DejaVuSans-78" x="63.183594"/>
      <use xlink:href="#DejaVuSans-70" x="122.363281"/>
      <use xlink:href="#DejaVuSans-65" x="185.839844"/>
      <use xlink:href="#DejaVuSans-72" x="247.363281"/>
      <use xlink:href="#DejaVuSans-69" x="288.476562"/>
      <use xlink:href="#DejaVuSans-6d" x="316.259766"/>
      <use xlink:href="#DejaVuSans-65" x="413.671875"/>
      <use xlink:href="#DejaVuSans-6e" x="475.195312"/>
      <use xlink:href="#DejaVuSans-74" x="538.574219"/>
      <use xlink:href="#DejaVuSans-61" x="577.783203"/>
      <use xlink:href="#DejaVuSans-6c" x="639.0625"/>
      <use xlink:href="#DejaVuSans-20" x="666.845703"/>
      <use xlink:href="#DejaVuSans-44" x="698.632812"/>
      <use xlink:href="#DejaVuSans-61" x="775.634766"/>
      <use xlink:href="#DejaVuSans-74" x="836.914062"/>
      <use xlink:href="#DejaVuSans-61" x="876.123047"/>
     </g>
    </g>
   </g>
  </g>
 </g>
 <defs>
  <clipPath id="p3a2f54e0da">
   <rect x="72" y="51.84" width="446.4" height="332.64"/>
  </clipPath>
 </defs>
</svg>
