<?xml version="1.0" encoding="utf-8" standalone="no"?>
<!DOCTYPE svg PUBLIC "-//W3C//DTD SVG 1.1//EN"
  "http://www.w3.org/Graphics/SVG/1.1/DTD/svg11.dtd">
<svg xmlns:xlink="http://www.w3.org/1999/xlink" width="576pt" height="432pt" viewBox="0 0 576 432" xmlns="http://www.w3.org/2000/svg" version="1.1">
 <metadata>
  <rdf:RDF xmlns:dc="http://purl.org/dc/elements/1.1/" xmlns:cc="http://creativecommons.org/ns#" xmlns:rdf="http://www.w3.org/1999/02/22-rdf-syntax-ns#">
   <cc:Work>
    <dc:type rdf:resource="http://purl.org/dc/dcmitype/StillImage"/>
    <dc:date>2023-05-10T17:00:10.590331</dc:date>
    <dc:format>image/svg+xml</dc:format>
    <dc:creator>
     <cc:Agent>
      <dc:title>Matplotlib v3.7.1, https://matplotlib.org/</dc:title>
     </cc:Agent>
    </dc:creator>
   </cc:Work>
  </rdf:RDF>
 </metadata>
 <defs>
  <style type="text/css">*{stroke-linejoin: round; stroke-linecap: butt}</style>
 </defs>
 <g id="figure_1">
  <g id="patch_1">
   <path d="M 0 432 
L 576 432 
L 576 0 
L 0 0 
z
" style="fill: #ffffff"/>
  </g>
  <g id="axes_1">
   <g id="patch_2">
    <path d="M 72 378 
L 518.4 378 
L 518.4 51.84 
L 72 51.84 
z
" style="fill: #ffffff"/>
   </g>
   <g id="matplotlib.axis_1">
    <g id="xtick_1">
     <g id="line2d_1">
      <defs>
       <path id="m4a5cbc974e" d="M 0 0 
L 0 3.5 
" style="stroke: #000000; stroke-width: 0.8"/>
      </defs>
      <g>
       <use xlink:href="#m4a5cbc974e" x="92.290909" y="378" style="stroke: #000000; stroke-width: 0.8"/>
      </g>
     </g>
     <g id="text_1">
      <!-- 0.0 -->
      <g transform="translate(84.339347 392.598437) scale(0.1 -0.1)">
       <defs>
        <path id="DejaVuSans-30" d="M 2034 4250 
Q 1547 4250 1301 3770 
Q 1056 3291 1056 2328 
Q 1056 1369 1301 889 
Q 1547 409 2034 409 
Q 2525 409 2770 889 
Q 3016 1369 3016 2328 
Q 3016 3291 2770 3770 
Q 2525 4250 2034 4250 
z
M 2034 4750 
Q 2819 4750 3233 4129 
Q 3647 3509 3647 2328 
Q 3647 1150 3233 529 
Q 2819 -91 2034 -91 
Q 1250 -91 836 529 
Q 422 1150 422 2328 
Q 422 3509 836 4129 
Q 1250 4750 2034 4750 
z
" transform="scale(0.015625)"/>
        <path id="DejaVuSans-2e" d="M 684 794 
L 1344 794 
L 1344 0 
L 684 0 
L 684 794 
z
" transform="scale(0.015625)"/>
       </defs>
       <use xlink:href="#DejaVuSans-30"/>
       <use xlink:href="#DejaVuSans-2e" x="63.623047"/>
       <use xlink:href="#DejaVuSans-30" x="95.410156"/>
      </g>
     </g>
    </g>
    <g id="xtick_2">
     <g id="line2d_2">
      <g>
       <use xlink:href="#m4a5cbc974e" x="143.018182" y="378" style="stroke: #000000; stroke-width: 0.8"/>
      </g>
     </g>
     <g id="text_2">
      <!-- 2.5 -->
      <g transform="translate(135.066619 392.598437) scale(0.1 -0.1)">
       <defs>
        <path id="DejaVuSans-32" d="M 1228 531 
L 3431 531 
L 3431 0 
L 469 0 
L 469 531 
Q 828 903 1448 1529 
Q 2069 2156 2228 2338 
Q 2531 2678 2651 2914 
Q 2772 3150 2772 3378 
Q 2772 3750 2511 3984 
Q 2250 4219 1831 4219 
Q 1534 4219 1204 4116 
Q 875 4013 500 3803 
L 500 4441 
Q 881 4594 1212 4672 
Q 1544 4750 1819 4750 
Q 2544 4750 2975 4387 
Q 3406 4025 3406 3419 
Q 3406 3131 3298 2873 
Q 3191 2616 2906 2266 
Q 2828 2175 2409 1742 
Q 1991 1309 1228 531 
z
" transform="scale(0.015625)"/>
        <path id="DejaVuSans-35" d="M 691 4666 
L 3169 4666 
L 3169 4134 
L 1269 4134 
L 1269 2991 
Q 1406 3038 1543 3061 
Q 1681 3084 1819 3084 
Q 2600 3084 3056 2656 
Q 3513 2228 3513 1497 
Q 3513 744 3044 326 
Q 2575 -91 1722 -91 
Q 1428 -91 1123 -41 
Q 819 9 494 109 
L 494 744 
Q 775 591 1075 516 
Q 1375 441 1709 441 
Q 2250 441 2565 725 
Q 2881 1009 2881 1497 
Q 2881 1984 2565 2268 
Q 2250 2553 1709 2553 
Q 1456 2553 1204 2497 
Q 953 2441 691 2322 
L 691 4666 
z
" transform="scale(0.015625)"/>
       </defs>
       <use xlink:href="#DejaVuSans-32"/>
       <use xlink:href="#DejaVuSans-2e" x="63.623047"/>
       <use xlink:href="#DejaVuSans-35" x="95.410156"/>
      </g>
     </g>
    </g>
    <g id="xtick_3">
     <g id="line2d_3">
      <g>
       <use xlink:href="#m4a5cbc974e" x="193.745455" y="378" style="stroke: #000000; stroke-width: 0.8"/>
      </g>
     </g>
     <g id="text_3">
      <!-- 5.0 -->
      <g transform="translate(185.793892 392.598437) scale(0.1 -0.1)">
       <use xlink:href="#DejaVuSans-35"/>
       <use xlink:href="#DejaVuSans-2e" x="63.623047"/>
       <use xlink:href="#DejaVuSans-30" x="95.410156"/>
      </g>
     </g>
    </g>
    <g id="xtick_4">
     <g id="line2d_4">
      <g>
       <use xlink:href="#m4a5cbc974e" x="244.472727" y="378" style="stroke: #000000; stroke-width: 0.8"/>
      </g>
     </g>
     <g id="text_4">
      <!-- 7.5 -->
      <g transform="translate(236.521165 392.598437) scale(0.1 -0.1)">
       <defs>
        <path id="DejaVuSans-37" d="M 525 4666 
L 3525 4666 
L 3525 4397 
L 1831 0 
L 1172 0 
L 2766 4134 
L 525 4134 
L 525 4666 
z
" transform="scale(0.015625)"/>
       </defs>
       <use xlink:href="#DejaVuSans-37"/>
       <use xlink:href="#DejaVuSans-2e" x="63.623047"/>
       <use xlink:href="#DejaVuSans-35" x="95.410156"/>
      </g>
     </g>
    </g>
    <g id="xtick_5">
     <g id="line2d_5">
      <g>
       <use xlink:href="#m4a5cbc974e" x="295.2" y="378" style="stroke: #000000; stroke-width: 0.8"/>
      </g>
     </g>
     <g id="text_5">
      <!-- 10.0 -->
      <g transform="translate(284.067187 392.598437) scale(0.1 -0.1)">
       <defs>
        <path id="DejaVuSans-31" d="M 794 531 
L 1825 531 
L 1825 4091 
L 703 3866 
L 703 4441 
L 1819 4666 
L 2450 4666 
L 2450 531 
L 3481 531 
L 3481 0 
L 794 0 
L 794 531 
z
" transform="scale(0.015625)"/>
       </defs>
       <use xlink:href="#DejaVuSans-31"/>
       <use xlink:href="#DejaVuSans-30" x="63.623047"/>
       <use xlink:href="#DejaVuSans-2e" x="127.246094"/>
       <use xlink:href="#DejaVuSans-30" x="159.033203"/>
      </g>
     </g>
    </g>
    <g id="xtick_6">
     <g id="line2d_6">
      <g>
       <use xlink:href="#m4a5cbc974e" x="345.927273" y="378" style="stroke: #000000; stroke-width: 0.8"/>
      </g>
     </g>
     <g id="text_6">
      <!-- 12.5 -->
      <g transform="translate(334.79446 392.598437) scale(0.1 -0.1)">
       <use xlink:href="#DejaVuSans-31"/>
       <use xlink:href="#DejaVuSans-32" x="63.623047"/>
       <use xlink:href="#DejaVuSans-2e" x="127.246094"/>
       <use xlink:href="#DejaVuSans-35" x="159.033203"/>
      </g>
     </g>
    </g>
    <g id="xtick_7">
     <g id="line2d_7">
      <g>
       <use xlink:href="#m4a5cbc974e" x="396.654545" y="378" style="stroke: #000000; stroke-width: 0.8"/>
      </g>
     </g>
     <g id="text_7">
      <!-- 15.0 -->
      <g transform="translate(385.521733 392.598437) scale(0.1 -0.1)">
       <use xlink:href="#DejaVuSans-31"/>
       <use xlink:href="#DejaVuSans-35" x="63.623047"/>
       <use xlink:href="#DejaVuSans-2e" x="127.246094"/>
       <use xlink:href="#DejaVuSans-30" x="159.033203"/>
      </g>
     </g>
    </g>
    <g id="xtick_8">
     <g id="line2d_8">
      <g>
       <use xlink:href="#m4a5cbc974e" x="447.381818" y="378" style="stroke: #000000; stroke-width: 0.8"/>
      </g>
     </g>
     <g id="text_8">
      <!-- 17.5 -->
      <g transform="translate(436.249006 392.598437) scale(0.1 -0.1)">
       <use xlink:href="#DejaVuSans-31"/>
       <use xlink:href="#DejaVuSans-37" x="63.623047"/>
       <use xlink:href="#DejaVuSans-2e" x="127.246094"/>
       <use xlink:href="#DejaVuSans-35" x="159.033203"/>
      </g>
     </g>
    </g>
    <g id="xtick_9">
     <g id="line2d_9">
      <g>
       <use xlink:href="#m4a5cbc974e" x="498.109091" y="378" style="stroke: #000000; stroke-width: 0.8"/>
      </g>
     </g>
     <g id="text_9">
      <!-- 20.0 -->
      <g transform="translate(486.976278 392.598437) scale(0.1 -0.1)">
       <use xlink:href="#DejaVuSans-32"/>
       <use xlink:href="#DejaVuSans-30" x="63.623047"/>
       <use xlink:href="#DejaVuSans-2e" x="127.246094"/>
       <use xlink:href="#DejaVuSans-30" x="159.033203"/>
      </g>
     </g>
    </g>
    <g id="text_10">
     <!-- Time (s) -->
     <g transform="translate(274.871094 406.276563) scale(0.1 -0.1)">
      <defs>
       <path id="DejaVuSans-54" d="M -19 4666 
L 3928 4666 
L 3928 4134 
L 2272 4134 
L 2272 0 
L 1638 0 
L 1638 4134 
L -19 4134 
L -19 4666 
z
" transform="scale(0.015625)"/>
       <path id="DejaVuSans-69" d="M 603 3500 
L 1178 3500 
L 1178 0 
L 603 0 
L 603 3500 
z
M 603 4863 
L 1178 4863 
L 1178 4134 
L 603 4134 
L 603 4863 
z
" transform="scale(0.015625)"/>
       <path id="DejaVuSans-6d" d="M 3328 2828 
Q 3544 3216 3844 3400 
Q 4144 3584 4550 3584 
Q 5097 3584 5394 3201 
Q 5691 2819 5691 2113 
L 5691 0 
L 5113 0 
L 5113 2094 
Q 5113 2597 4934 2840 
Q 4756 3084 4391 3084 
Q 3944 3084 3684 2787 
Q 3425 2491 3425 1978 
L 3425 0 
L 2847 0 
L 2847 2094 
Q 2847 2600 2669 2842 
Q 2491 3084 2119 3084 
Q 1678 3084 1418 2786 
Q 1159 2488 1159 1978 
L 1159 0 
L 581 0 
L 581 3500 
L 1159 3500 
L 1159 2956 
Q 1356 3278 1631 3431 
Q 1906 3584 2284 3584 
Q 2666 3584 2933 3390 
Q 3200 3197 3328 2828 
z
" transform="scale(0.015625)"/>
       <path id="DejaVuSans-65" d="M 3597 1894 
L 3597 1613 
L 953 1613 
Q 991 1019 1311 708 
Q 1631 397 2203 397 
Q 2534 397 2845 478 
Q 3156 559 3463 722 
L 3463 178 
Q 3153 47 2828 -22 
Q 2503 -91 2169 -91 
Q 1331 -91 842 396 
Q 353 884 353 1716 
Q 353 2575 817 3079 
Q 1281 3584 2069 3584 
Q 2775 3584 3186 3129 
Q 3597 2675 3597 1894 
z
M 3022 2063 
Q 3016 2534 2758 2815 
Q 2500 3097 2075 3097 
Q 1594 3097 1305 2825 
Q 1016 2553 972 2059 
L 3022 2063 
z
" transform="scale(0.015625)"/>
       <path id="DejaVuSans-20" transform="scale(0.015625)"/>
       <path id="DejaVuSans-28" d="M 1984 4856 
Q 1566 4138 1362 3434 
Q 1159 2731 1159 2009 
Q 1159 1288 1364 580 
Q 1569 -128 1984 -844 
L 1484 -844 
Q 1016 -109 783 600 
Q 550 1309 550 2009 
Q 550 2706 781 3412 
Q 1013 4119 1484 4856 
L 1984 4856 
z
" transform="scale(0.015625)"/>
       <path id="DejaVuSans-73" d="M 2834 3397 
L 2834 2853 
Q 2591 2978 2328 3040 
Q 2066 3103 1784 3103 
Q 1356 3103 1142 2972 
Q 928 2841 928 2578 
Q 928 2378 1081 2264 
Q 1234 2150 1697 2047 
L 1894 2003 
Q 2506 1872 2764 1633 
Q 3022 1394 3022 966 
Q 3022 478 2636 193 
Q 2250 -91 1575 -91 
Q 1294 -91 989 -36 
Q 684 19 347 128 
L 347 722 
Q 666 556 975 473 
Q 1284 391 1588 391 
Q 1994 391 2212 530 
Q 2431 669 2431 922 
Q 2431 1156 2273 1281 
Q 2116 1406 1581 1522 
L 1381 1569 
Q 847 1681 609 1914 
Q 372 2147 372 2553 
Q 372 3047 722 3315 
Q 1072 3584 1716 3584 
Q 2034 3584 2315 3537 
Q 2597 3491 2834 3397 
z
" transform="scale(0.015625)"/>
       <path id="DejaVuSans-29" d="M 513 4856 
L 1013 4856 
Q 1481 4119 1714 3412 
Q 1947 2706 1947 2009 
Q 1947 1309 1714 600 
Q 1481 -109 1013 -844 
L 513 -844 
Q 928 -128 1133 580 
Q 1338 1288 1338 2009 
Q 1338 2731 1133 3434 
Q 928 4138 513 4856 
z
" transform="scale(0.015625)"/>
      </defs>
      <use xlink:href="#DejaVuSans-54"/>
      <use xlink:href="#DejaVuSans-69" x="57.958984"/>
      <use xlink:href="#DejaVuSans-6d" x="85.742188"/>
      <use xlink:href="#DejaVuSans-65" x="183.154297"/>
      <use xlink:href="#DejaVuSans-20" x="244.677734"/>
      <use xlink:href="#DejaVuSans-28" x="276.464844"/>
      <use xlink:href="#DejaVuSans-73" x="315.478516"/>
      <use xlink:href="#DejaVuSans-29" x="367.578125"/>
     </g>
    </g>
   </g>
   <g id="matplotlib.axis_2">
    <g id="ytick_1">
     <g id="line2d_10">
      <defs>
       <path id="m5238e37aec" d="M 0 0 
L -3.5 0 
" style="stroke: #000000; stroke-width: 0.8"/>
      </defs>
      <g>
       <use xlink:href="#m5238e37aec" x="72" y="363.087502" style="stroke: #000000; stroke-width: 0.8"/>
      </g>
     </g>
     <g id="text_11">
      <!-- 0 -->
      <g transform="translate(58.6375 366.886721) scale(0.1 -0.1)">
       <use xlink:href="#DejaVuSans-30"/>
      </g>
     </g>
    </g>
    <g id="ytick_2">
     <g id="line2d_11">
      <g>
       <use xlink:href="#m5238e37aec" x="72" y="306.494296" style="stroke: #000000; stroke-width: 0.8"/>
      </g>
     </g>
     <g id="text_12">
      <!-- 10 -->
      <g transform="translate(52.275 310.293514) scale(0.1 -0.1)">
       <use xlink:href="#DejaVuSans-31"/>
       <use xlink:href="#DejaVuSans-30" x="63.623047"/>
      </g>
     </g>
    </g>
    <g id="ytick_3">
     <g id="line2d_12">
      <g>
       <use xlink:href="#m5238e37aec" x="72" y="249.901089" style="stroke: #000000; stroke-width: 0.8"/>
      </g>
     </g>
     <g id="text_13">
      <!-- 20 -->
      <g transform="translate(52.275 253.700308) scale(0.1 -0.1)">
       <use xlink:href="#DejaVuSans-32"/>
       <use xlink:href="#DejaVuSans-30" x="63.623047"/>
      </g>
     </g>
    </g>
    <g id="ytick_4">
     <g id="line2d_13">
      <g>
       <use xlink:href="#m5238e37aec" x="72" y="193.307883" style="stroke: #000000; stroke-width: 0.8"/>
      </g>
     </g>
     <g id="text_14">
      <!-- 30 -->
      <g transform="translate(52.275 197.107101) scale(0.1 -0.1)">
       <defs>
        <path id="DejaVuSans-33" d="M 2597 2516 
Q 3050 2419 3304 2112 
Q 3559 1806 3559 1356 
Q 3559 666 3084 287 
Q 2609 -91 1734 -91 
Q 1441 -91 1130 -33 
Q 819 25 488 141 
L 488 750 
Q 750 597 1062 519 
Q 1375 441 1716 441 
Q 2309 441 2620 675 
Q 2931 909 2931 1356 
Q 2931 1769 2642 2001 
Q 2353 2234 1838 2234 
L 1294 2234 
L 1294 2753 
L 1863 2753 
Q 2328 2753 2575 2939 
Q 2822 3125 2822 3475 
Q 2822 3834 2567 4026 
Q 2313 4219 1838 4219 
Q 1578 4219 1281 4162 
Q 984 4106 628 3988 
L 628 4550 
Q 988 4650 1302 4700 
Q 1616 4750 1894 4750 
Q 2613 4750 3031 4423 
Q 3450 4097 3450 3541 
Q 3450 3153 3228 2886 
Q 3006 2619 2597 2516 
z
" transform="scale(0.015625)"/>
       </defs>
       <use xlink:href="#DejaVuSans-33"/>
       <use xlink:href="#DejaVuSans-30" x="63.623047"/>
      </g>
     </g>
    </g>
    <g id="ytick_5">
     <g id="line2d_14">
      <g>
       <use xlink:href="#m5238e37aec" x="72" y="136.714676" style="stroke: #000000; stroke-width: 0.8"/>
      </g>
     </g>
     <g id="text_15">
      <!-- 40 -->
      <g transform="translate(52.275 140.513895) scale(0.1 -0.1)">
       <defs>
        <path id="DejaVuSans-34" d="M 2419 4116 
L 825 1625 
L 2419 1625 
L 2419 4116 
z
M 2253 4666 
L 3047 4666 
L 3047 1625 
L 3713 1625 
L 3713 1100 
L 3047 1100 
L 3047 0 
L 2419 0 
L 2419 1100 
L 313 1100 
L 313 1709 
L 2253 4666 
z
" transform="scale(0.015625)"/>
       </defs>
       <use xlink:href="#DejaVuSans-34"/>
       <use xlink:href="#DejaVuSans-30" x="63.623047"/>
      </g>
     </g>
    </g>
    <g id="ytick_6">
     <g id="line2d_15">
      <g>
       <use xlink:href="#m5238e37aec" x="72" y="80.12147" style="stroke: #000000; stroke-width: 0.8"/>
      </g>
     </g>
     <g id="text_16">
      <!-- 50 -->
      <g transform="translate(52.275 83.920688) scale(0.1 -0.1)">
       <use xlink:href="#DejaVuSans-35"/>
       <use xlink:href="#DejaVuSans-30" x="63.623047"/>
      </g>
     </g>
    </g>
    <g id="text_17">
     <!-- Angular Velocity (rad/s) -->
     <g transform="translate(46.195312 273.63875) rotate(-90) scale(0.1 -0.1)">
      <defs>
       <path id="DejaVuSans-41" d="M 2188 4044 
L 1331 1722 
L 3047 1722 
L 2188 4044 
z
M 1831 4666 
L 2547 4666 
L 4325 0 
L 3669 0 
L 3244 1197 
L 1141 1197 
L 716 0 
L 50 0 
L 1831 4666 
z
" transform="scale(0.015625)"/>
       <path id="DejaVuSans-6e" d="M 3513 2113 
L 3513 0 
L 2938 0 
L 2938 2094 
Q 2938 2591 2744 2837 
Q 2550 3084 2163 3084 
Q 1697 3084 1428 2787 
Q 1159 2491 1159 1978 
L 1159 0 
L 581 0 
L 581 3500 
L 1159 3500 
L 1159 2956 
Q 1366 3272 1645 3428 
Q 1925 3584 2291 3584 
Q 2894 3584 3203 3211 
Q 3513 2838 3513 2113 
z
" transform="scale(0.015625)"/>
       <path id="DejaVuSans-67" d="M 2906 1791 
Q 2906 2416 2648 2759 
Q 2391 3103 1925 3103 
Q 1463 3103 1205 2759 
Q 947 2416 947 1791 
Q 947 1169 1205 825 
Q 1463 481 1925 481 
Q 2391 481 2648 825 
Q 2906 1169 2906 1791 
z
M 3481 434 
Q 3481 -459 3084 -895 
Q 2688 -1331 1869 -1331 
Q 1566 -1331 1297 -1286 
Q 1028 -1241 775 -1147 
L 775 -588 
Q 1028 -725 1275 -790 
Q 1522 -856 1778 -856 
Q 2344 -856 2625 -561 
Q 2906 -266 2906 331 
L 2906 616 
Q 2728 306 2450 153 
Q 2172 0 1784 0 
Q 1141 0 747 490 
Q 353 981 353 1791 
Q 353 2603 747 3093 
Q 1141 3584 1784 3584 
Q 2172 3584 2450 3431 
Q 2728 3278 2906 2969 
L 2906 3500 
L 3481 3500 
L 3481 434 
z
" transform="scale(0.015625)"/>
       <path id="DejaVuSans-75" d="M 544 1381 
L 544 3500 
L 1119 3500 
L 1119 1403 
Q 1119 906 1312 657 
Q 1506 409 1894 409 
Q 2359 409 2629 706 
Q 2900 1003 2900 1516 
L 2900 3500 
L 3475 3500 
L 3475 0 
L 2900 0 
L 2900 538 
Q 2691 219 2414 64 
Q 2138 -91 1772 -91 
Q 1169 -91 856 284 
Q 544 659 544 1381 
z
M 1991 3584 
L 1991 3584 
z
" transform="scale(0.015625)"/>
       <path id="DejaVuSans-6c" d="M 603 4863 
L 1178 4863 
L 1178 0 
L 603 0 
L 603 4863 
z
" transform="scale(0.015625)"/>
       <path id="DejaVuSans-61" d="M 2194 1759 
Q 1497 1759 1228 1600 
Q 959 1441 959 1056 
Q 959 750 1161 570 
Q 1363 391 1709 391 
Q 2188 391 2477 730 
Q 2766 1069 2766 1631 
L 2766 1759 
L 2194 1759 
z
M 3341 1997 
L 3341 0 
L 2766 0 
L 2766 531 
Q 2569 213 2275 61 
Q 1981 -91 1556 -91 
Q 1019 -91 701 211 
Q 384 513 384 1019 
Q 384 1609 779 1909 
Q 1175 2209 1959 2209 
L 2766 2209 
L 2766 2266 
Q 2766 2663 2505 2880 
Q 2244 3097 1772 3097 
Q 1472 3097 1187 3025 
Q 903 2953 641 2809 
L 641 3341 
Q 956 3463 1253 3523 
Q 1550 3584 1831 3584 
Q 2591 3584 2966 3190 
Q 3341 2797 3341 1997 
z
" transform="scale(0.015625)"/>
       <path id="DejaVuSans-72" d="M 2631 2963 
Q 2534 3019 2420 3045 
Q 2306 3072 2169 3072 
Q 1681 3072 1420 2755 
Q 1159 2438 1159 1844 
L 1159 0 
L 581 0 
L 581 3500 
L 1159 3500 
L 1159 2956 
Q 1341 3275 1631 3429 
Q 1922 3584 2338 3584 
Q 2397 3584 2469 3576 
Q 2541 3569 2628 3553 
L 2631 2963 
z
" transform="scale(0.015625)"/>
       <path id="DejaVuSans-56" d="M 1831 0 
L 50 4666 
L 709 4666 
L 2188 738 
L 3669 4666 
L 4325 4666 
L 2547 0 
L 1831 0 
z
" transform="scale(0.015625)"/>
       <path id="DejaVuSans-6f" d="M 1959 3097 
Q 1497 3097 1228 2736 
Q 959 2375 959 1747 
Q 959 1119 1226 758 
Q 1494 397 1959 397 
Q 2419 397 2687 759 
Q 2956 1122 2956 1747 
Q 2956 2369 2687 2733 
Q 2419 3097 1959 3097 
z
M 1959 3584 
Q 2709 3584 3137 3096 
Q 3566 2609 3566 1747 
Q 3566 888 3137 398 
Q 2709 -91 1959 -91 
Q 1206 -91 779 398 
Q 353 888 353 1747 
Q 353 2609 779 3096 
Q 1206 3584 1959 3584 
z
" transform="scale(0.015625)"/>
       <path id="DejaVuSans-63" d="M 3122 3366 
L 3122 2828 
Q 2878 2963 2633 3030 
Q 2388 3097 2138 3097 
Q 1578 3097 1268 2742 
Q 959 2388 959 1747 
Q 959 1106 1268 751 
Q 1578 397 2138 397 
Q 2388 397 2633 464 
Q 2878 531 3122 666 
L 3122 134 
Q 2881 22 2623 -34 
Q 2366 -91 2075 -91 
Q 1284 -91 818 406 
Q 353 903 353 1747 
Q 353 2603 823 3093 
Q 1294 3584 2113 3584 
Q 2378 3584 2631 3529 
Q 2884 3475 3122 3366 
z
" transform="scale(0.015625)"/>
       <path id="DejaVuSans-74" d="M 1172 4494 
L 1172 3500 
L 2356 3500 
L 2356 3053 
L 1172 3053 
L 1172 1153 
Q 1172 725 1289 603 
Q 1406 481 1766 481 
L 2356 481 
L 2356 0 
L 1766 0 
Q 1100 0 847 248 
Q 594 497 594 1153 
L 594 3053 
L 172 3053 
L 172 3500 
L 594 3500 
L 594 4494 
L 1172 4494 
z
" transform="scale(0.015625)"/>
       <path id="DejaVuSans-79" d="M 2059 -325 
Q 1816 -950 1584 -1140 
Q 1353 -1331 966 -1331 
L 506 -1331 
L 506 -850 
L 844 -850 
Q 1081 -850 1212 -737 
Q 1344 -625 1503 -206 
L 1606 56 
L 191 3500 
L 800 3500 
L 1894 763 
L 2988 3500 
L 3597 3500 
L 2059 -325 
z
" transform="scale(0.015625)"/>
       <path id="DejaVuSans-64" d="M 2906 2969 
L 2906 4863 
L 3481 4863 
L 3481 0 
L 2906 0 
L 2906 525 
Q 2725 213 2448 61 
Q 2172 -91 1784 -91 
Q 1150 -91 751 415 
Q 353 922 353 1747 
Q 353 2572 751 3078 
Q 1150 3584 1784 3584 
Q 2172 3584 2448 3432 
Q 2725 3281 2906 2969 
z
M 947 1747 
Q 947 1113 1208 752 
Q 1469 391 1925 391 
Q 2381 391 2643 752 
Q 2906 1113 2906 1747 
Q 2906 2381 2643 2742 
Q 2381 3103 1925 3103 
Q 1469 3103 1208 2742 
Q 947 2381 947 1747 
z
" transform="scale(0.015625)"/>
       <path id="DejaVuSans-2f" d="M 1625 4666 
L 2156 4666 
L 531 -594 
L 0 -594 
L 1625 4666 
z
" transform="scale(0.015625)"/>
      </defs>
      <use xlink:href="#DejaVuSans-41"/>
      <use xlink:href="#DejaVuSans-6e" x="68.408203"/>
      <use xlink:href="#DejaVuSans-67" x="131.787109"/>
      <use xlink:href="#DejaVuSans-75" x="195.263672"/>
      <use xlink:href="#DejaVuSans-6c" x="258.642578"/>
      <use xlink:href="#DejaVuSans-61" x="286.425781"/>
      <use xlink:href="#DejaVuSans-72" x="347.705078"/>
      <use xlink:href="#DejaVuSans-20" x="388.818359"/>
      <use xlink:href="#DejaVuSans-56" x="420.605469"/>
      <use xlink:href="#DejaVuSans-65" x="481.263672"/>
      <use xlink:href="#DejaVuSans-6c" x="542.787109"/>
      <use xlink:href="#DejaVuSans-6f" x="570.570312"/>
      <use xlink:href="#DejaVuSans-63" x="631.751953"/>
      <use xlink:href="#DejaVuSans-69" x="686.732422"/>
      <use xlink:href="#DejaVuSans-74" x="714.515625"/>
      <use xlink:href="#DejaVuSans-79" x="753.724609"/>
      <use xlink:href="#DejaVuSans-20" x="812.904297"/>
      <use xlink:href="#DejaVuSans-28" x="844.691406"/>
      <use xlink:href="#DejaVuSans-72" x="883.705078"/>
      <use xlink:href="#DejaVuSans-61" x="924.818359"/>
      <use xlink:href="#DejaVuSans-64" x="986.097656"/>
      <use xlink:href="#DejaVuSans-2f" x="1049.574219"/>
      <use xlink:href="#DejaVuSans-73" x="1083.265625"/>
      <use xlink:href="#DejaVuSans-29" x="1135.365234"/>
     </g>
    </g>
   </g>
   <g id="line2d_16">
    <path d="M 92.290909 66.665455 
L 96.390083 72.876377 
L 100.489256 78.957167 
L 104.58843 84.910547 
L 108.687603 90.739182 
L 112.786777 96.445687 
L 116.88595 102.03262 
L 120.985124 107.50249 
L 125.084298 112.857752 
L 129.183471 118.101092 
L 133.282645 123.236778 
L 137.381818 128.267098 
L 141.480992 133.193877 
L 145.580165 138.018928 
L 149.679339 142.744047 
L 153.778512 147.371015 
L 157.877686 151.901598 
L 161.97686 156.337547 
L 166.076033 160.680597 
L 170.175207 164.932469 
L 174.27438 169.094868 
L 178.373554 173.169485 
L 182.472727 177.157994 
L 186.571901 181.062054 
L 190.671074 184.88331 
L 194.770248 188.623393 
L 198.869421 192.283914 
L 202.968595 195.866475 
L 207.067769 199.372658 
L 211.166942 202.804031 
L 215.266116 206.162149 
L 219.365289 209.44855 
L 223.464463 212.664756 
L 227.563636 215.812275 
L 231.66281 218.892601 
L 235.761983 221.907209 
L 239.861157 224.857564 
L 243.960331 227.745111 
L 248.059504 230.571282 
L 252.158678 233.337495 
L 256.257851 236.04515 
L 260.357025 238.695635 
L 264.456198 241.29032 
L 268.555372 243.830561 
L 272.654545 246.317699 
L 276.753719 248.753059 
L 280.852893 251.137953 
L 284.952066 253.473674 
L 289.05124 255.761504 
L 293.150413 258.002706 
L 297.249587 260.198531 
L 301.34876 262.350213 
L 305.447934 264.458971 
L 309.547107 266.525605 
L 313.646281 268.549839 
L 317.745455 270.53234 
L 321.844628 272.473855 
L 325.943802 274.375122 
L 330.042975 276.236873 
L 334.142149 278.059833 
L 338.241322 279.844719 
L 342.340496 281.592241 
L 346.439669 283.303104 
L 350.538843 284.978005 
L 354.638017 286.617633 
L 358.73719 288.222671 
L 362.836364 289.793796 
L 366.935537 291.331675 
L 371.034711 292.836971 
L 375.133884 294.310338 
L 379.233058 295.752425 
L 383.332231 297.163873 
L 387.431405 298.545316 
L 391.530579 299.89738 
L 395.629752 301.220687 
L 399.728926 302.515848 
L 403.828099 303.78347 
L 407.927273 305.024152 
L 412.026446 306.238486 
L 416.12562 307.427058 
L 420.224793 308.590446 
L 424.323967 309.72922 
L 428.42314 310.843946 
L 432.522314 311.93518 
L 436.621488 313.003473 
L 440.720661 314.049368 
L 444.819835 315.073401 
L 448.919008 316.076102 
L 453.018182 317.057994 
L 457.117355 318.019591 
L 461.216529 318.961403 
L 465.315702 319.88393 
L 469.414876 320.787667 
L 473.51405 321.673102 
L 477.613223 322.540676 
L 481.712397 323.390252 
L 485.81157 324.222028 
L 489.910744 325.036375 
L 494.009917 325.833659 
L 498.109091 326.614237 
" clip-path="url(#pf9b6c2e5e0)" style="fill: none; stroke: #0000ff; stroke-linecap: square"/>
   </g>
   <g id="line2d_17">
    <path d="M 92.290909 66.717645 
L 92.696727 66.884165 
L 93.305455 67.436399 
L 95.273673 69.653362 
L 96.369382 71.069121 
L 98.215855 73.144366 
L 99.108655 74.114639 
L 100.1232 75.142529 
L 101.604436 76.982351 
L 102.740727 78.173463 
L 104.039345 79.802707 
L 105.439418 81.343771 
L 106.393091 82.522481 
L 108.219273 84.479397 
L 109.152655 85.596177 
L 110.694764 87.245617 
L 111.709309 88.481891 
L 113.373164 90.296487 
L 114.265964 91.355114 
L 116.010982 93.184634 
L 116.944364 94.316195 
L 118.729964 96.22643 
L 119.683636 97.389387 
L 121.5504 99.402251 
L 122.4432 100.428789 
L 124.086764 102.125032 
L 125.020145 103.285007 
L 125.973818 104.08012 
L 126.541964 104.690188 
L 128.205818 106.737124 
L 129.524727 108.040542 
L 130.681309 109.484739 
L 131.634982 110.234116 
L 132.182836 110.805801 
L 133.806109 112.752861 
L 135.226473 114.114525 
L 136.423636 115.625678 
L 137.3976 116.414021 
L 137.965745 116.996113 
L 139.710764 119.069924 
L 141.029673 120.297042 
L 142.389164 122.009873 
L 143.383418 122.770423 
L 143.931273 123.331489 
L 145.676291 125.403748 
L 147.116945 126.757255 
L 148.354691 128.31849 
L 149.267782 129.027639 
L 149.876509 129.563192 
L 150.627273 130.619613 
L 151.398327 131.542596 
L 152.270836 132.228056 
L 153.0216 132.83643 
L 153.792655 133.883683 
L 154.604291 134.809061 
L 155.618836 135.605326 
L 156.227564 136.165074 
L 158.358109 138.560824 
L 159.4944 139.520882 
L 161.259709 141.615722 
L 162.822109 142.928722 
L 164.323636 144.799862 
L 165.541091 145.646142 
L 166.068655 146.193212 
L 167.813673 148.306971 
L 169.518109 149.708478 
L 170.958764 151.507248 
L 172.196509 152.373428 
L 172.764655 152.913114 
L 174.732873 155.184696 
L 176.214109 156.336466 
L 177.106909 157.617469 
L 177.776509 158.342821 
L 178.770764 159.036906 
L 179.683855 159.740599 
L 180.353455 160.677781 
L 181.1448 161.675743 
L 181.976727 162.310459 
L 183.255055 163.275303 
L 183.944945 164.236885 
L 184.716 165.195596 
L 185.507345 165.776637 
L 186.785673 166.711868 
L 187.3944 167.51289 
L 188.348073 168.763354 
L 189.078545 169.285532 
L 190.478618 170.24564 
L 191.067055 171.001452 
L 192.122182 172.403414 
L 192.852655 172.910894 
L 194.171564 173.81185 
L 194.739709 174.502144 
L 195.997745 176.143596 
L 196.870255 176.707207 
L 198.006545 177.509893 
L 198.574691 178.167032 
L 199.974764 179.937685 
L 200.969018 180.543031 
L 202.003855 181.30004 
L 202.572 181.991438 
L 203.830036 183.612204 
L 204.601091 184.062483 
L 205.676509 184.750741 
L 206.325818 185.380871 
L 207.178036 186.638578 
L 207.827345 187.389166 
L 208.517236 187.799524 
L 209.612945 188.454924 
L 210.404291 189.175321 
L 211.195636 190.314556 
L 211.905818 191.174105 
L 212.555127 191.574639 
L 213.711709 192.262807 
L 214.6248 193.079853 
L 215.497309 194.320293 
L 216.166909 195.083165 
L 216.836509 195.470663 
L 217.871345 196.071479 
L 218.906182 196.993003 
L 219.717818 198.137306 
L 220.448291 199.009199 
L 221.057018 199.373062 
L 222.2136 200.031892 
L 223.3296 201.029406 
L 224.181818 202.22958 
L 224.871709 203.031779 
L 225.460145 203.368433 
L 226.637018 203.988785 
L 227.773309 204.978937 
L 228.483491 205.938156 
L 229.356 207.037807 
L 229.924145 207.384149 
L 231.202473 208.047935 
L 232.399636 209.096876 
L 233.109818 210.01808 
L 234.0432 211.162774 
L 234.611345 211.493691 
L 235.747636 212.081206 
L 236.762182 212.959024 
L 237.553527 213.799003 
L 238.973891 215.473796 
L 239.6232 215.770443 
L 240.495709 216.216352 
L 241.449382 217.025063 
L 242.5248 218.110914 
L 243.904582 219.739488 
L 244.513309 220.032525 
L 245.446691 220.494715 
L 246.400364 221.300535 
L 247.678691 222.578304 
L 248.936727 224.04746 
L 249.525164 224.340548 
L 250.458545 224.770577 
L 251.331055 225.507598 
L 253.218109 227.461497 
L 254.110909 228.463462 
L 254.699345 228.779992 
L 255.774764 229.244257 
L 256.647273 229.991014 
L 258.940145 232.377796 
L 259.630036 233.053403 
L 260.238764 233.345378 
L 261.172145 233.741821 
L 261.922909 234.356128 
L 264.357818 236.766843 
L 265.210036 237.642912 
L 265.839055 237.957606 
L 266.8536 238.38687 
L 267.604364 239.025617 
L 270.445091 241.838456 
L 271.134982 242.465257 
L 271.784291 242.745169 
L 272.6568 243.092853 
L 273.3264 243.641928 
L 275.030836 245.121645 
L 275.700436 245.728633 
L 277.283127 247.351881 
L 277.973018 247.617936 
L 278.744073 247.924127 
L 279.454255 248.48599 
L 281.260145 250.042682 
L 281.950036 250.64212 
L 283.613891 252.327906 
L 284.364655 252.61421 
L 285.135709 252.923144 
L 285.8256 253.4795 
L 287.448873 254.922737 
L 288.524291 255.73154 
L 290.350473 257.56248 
L 291.141818 257.815232 
L 291.831709 258.086334 
L 292.5216 258.644325 
L 294.246327 260.196307 
L 295.504364 261.075988 
L 297.229091 262.813016 
L 297.959564 263.0691 
L 298.892945 263.402916 
L 299.643709 264.021256 
L 301.327855 265.514186 
L 302.951127 266.705219 
L 304.270036 268.097393 
L 304.899055 268.411518 
L 306.562909 269.055156 
L 307.476 269.920058 
L 308.470255 270.790432 
L 309.403636 271.36255 
L 310.255855 271.888341 
L 310.966036 272.68058 
L 311.899418 273.647054 
L 312.548727 274.0153 
L 314.598109 274.858776 
L 317.195345 277.011994 
L 318.676582 277.915194 
L 320.604218 279.754136 
L 321.375273 279.993924 
L 322.491273 280.375545 
L 323.079709 280.814864 
L 325.189964 282.594865 
L 326.650909 283.390822 
L 327.361091 283.864095 
L 328.172727 284.760367 
L 328.984364 285.53421 
L 329.775709 285.949998 
L 331.967127 286.818989 
L 333.123709 287.878671 
L 334.26 288.745934 
L 336.958691 290.321039 
L 339.048655 292.189553 
L 340.0632 292.512936 
L 341.016873 292.876118 
L 341.990836 293.466631 
L 344.628655 295.519772 
L 345.886691 296.218068 
L 347.469382 297.14007 
L 349.478182 298.906797 
L 352.3392 300.088685 
L 353.353745 300.813768 
L 354.672655 301.877606 
L 355.930691 302.612013 
L 356.924945 303.175327 
L 357.858327 303.664842 
L 358.812 304.166872 
L 359.522182 304.808525 
L 360.8208 305.981868 
L 361.530982 306.257175 
L 362.849891 306.706193 
L 364.107927 307.350885 
L 366.116727 308.680484 
L 367.171855 309.447052 
L 369.038618 310.418259 
L 369.7488 310.82362 
L 370.783636 311.446654 
L 372.204 312.147748 
L 373.015636 312.877633 
L 374.172218 313.8392 
L 374.922982 314.120803 
L 376.302764 314.585257 
L 378.2304 315.637158 
L 379.447855 316.257189 
L 380.2392 316.77458 
L 381.618982 317.840079 
L 383.769818 318.882496 
L 384.764073 319.381234 
L 386.103273 320.235765 
L 387.726545 320.858943 
L 388.599055 321.58416 
L 389.715055 322.500549 
L 390.486109 322.888966 
L 392.799273 323.647922 
L 394.260218 324.494026 
L 397.851709 326.383662 
L 399.190909 327.460364 
L 400.306909 327.88161 
L 401.037382 328.275651 
L 401.970764 328.762894 
L 403.431709 329.361668 
L 404.223055 329.997835 
L 404.912945 330.441531 
L 405.541964 330.553194 
L 406.657964 330.74199 
L 407.2464 331.106371 
L 409.458109 332.71682 
L 410.919055 333.400611 
L 411.669818 333.605804 
L 412.887273 333.903197 
L 413.922109 334.383542 
L 415.768582 335.506271 
L 417.939709 336.53425 
L 419.035418 337.070852 
L 420.4152 337.545254 
L 421.571782 338.325215 
L 423.377673 339.696602 
L 425.711127 340.432155 
L 426.685091 341.010122 
L 427.577891 341.483215 
L 428.348945 341.603628 
L 429.079418 341.782395 
L 429.769309 342.213335 
L 432.386836 344.039177 
L 432.995564 344.152574 
L 434.882618 344.274113 
L 436.749382 345.233223 
L 438.778473 346.304508 
L 439.772727 346.672419 
L 440.868436 347.417404 
L 441.801818 347.919995 
L 442.978691 348.238871 
L 443.810618 348.610836 
L 444.926618 349.104151 
L 445.657091 349.149089 
L 446.732509 349.203162 
L 447.462982 349.521528 
L 449.390618 350.463587 
L 450.9936 351.127632 
L 451.906691 351.848592 
L 452.982109 352.634829 
L 453.834327 352.955674 
L 455.417018 353.495847 
L 456.512727 354.187792 
L 457.6896 354.842461 
L 459.272291 355.387425 
L 462.518836 356.328492 
L 463.655127 356.75613 
L 466.008873 357.750162 
L 467.936509 358.145961 
L 469.458327 358.595548 
L 471.101891 359.328747 
L 476.377527 361.871767 
L 479.218255 362.990936 
L 479.948727 363.174545 
L 479.948727 363.174545 
" clip-path="url(#pf9b6c2e5e0)" style="fill: none; stroke: #ff0000; stroke-linecap: square"/>
   </g>
   <g id="patch_3">
    <path d="M 72 378 
L 72 51.84 
" style="fill: none; stroke: #000000; stroke-width: 0.8; stroke-linejoin: miter; stroke-linecap: square"/>
   </g>
   <g id="patch_4">
    <path d="M 518.4 378 
L 518.4 51.84 
" style="fill: none; stroke: #000000; stroke-width: 0.8; stroke-linejoin: miter; stroke-linecap: square"/>
   </g>
   <g id="patch_5">
    <path d="M 72 378 
L 518.4 378 
" style="fill: none; stroke: #000000; stroke-width: 0.8; stroke-linejoin: miter; stroke-linecap: square"/>
   </g>
   <g id="patch_6">
    <path d="M 72 51.84 
L 518.4 51.84 
" style="fill: none; stroke: #000000; stroke-width: 0.8; stroke-linejoin: miter; stroke-linecap: square"/>
   </g>
   <g id="text_18">
    <!-- Free Response Data -->
    <g transform="translate(235.512187 45.84) scale(0.12 -0.12)">
     <defs>
      <path id="DejaVuSans-46" d="M 628 4666 
L 3309 4666 
L 3309 4134 
L 1259 4134 
L 1259 2759 
L 3109 2759 
L 3109 2228 
L 1259 2228 
L 1259 0 
L 628 0 
L 628 4666 
z
" transform="scale(0.015625)"/>
      <path id="DejaVuSans-52" d="M 2841 2188 
Q 3044 2119 3236 1894 
Q 3428 1669 3622 1275 
L 4263 0 
L 3584 0 
L 2988 1197 
Q 2756 1666 2539 1819 
Q 2322 1972 1947 1972 
L 1259 1972 
L 1259 0 
L 628 0 
L 628 4666 
L 2053 4666 
Q 2853 4666 3247 4331 
Q 3641 3997 3641 3322 
Q 3641 2881 3436 2590 
Q 3231 2300 2841 2188 
z
M 1259 4147 
L 1259 2491 
L 2053 2491 
Q 2509 2491 2742 2702 
Q 2975 2913 2975 3322 
Q 2975 3731 2742 3939 
Q 2509 4147 2053 4147 
L 1259 4147 
z
" transform="scale(0.015625)"/>
      <path id="DejaVuSans-70" d="M 1159 525 
L 1159 -1331 
L 581 -1331 
L 581 3500 
L 1159 3500 
L 1159 2969 
Q 1341 3281 1617 3432 
Q 1894 3584 2278 3584 
Q 2916 3584 3314 3078 
Q 3713 2572 3713 1747 
Q 3713 922 3314 415 
Q 2916 -91 2278 -91 
Q 1894 -91 1617 61 
Q 1341 213 1159 525 
z
M 3116 1747 
Q 3116 2381 2855 2742 
Q 2594 3103 2138 3103 
Q 1681 3103 1420 2742 
Q 1159 2381 1159 1747 
Q 1159 1113 1420 752 
Q 1681 391 2138 391 
Q 2594 391 2855 752 
Q 3116 1113 3116 1747 
z
" transform="scale(0.015625)"/>
      <path id="DejaVuSans-44" d="M 1259 4147 
L 1259 519 
L 2022 519 
Q 2988 519 3436 956 
Q 3884 1394 3884 2338 
Q 3884 3275 3436 3711 
Q 2988 4147 2022 4147 
L 1259 4147 
z
M 628 4666 
L 1925 4666 
Q 3281 4666 3915 4102 
Q 4550 3538 4550 2338 
Q 4550 1131 3912 565 
Q 3275 0 1925 0 
L 628 0 
L 628 4666 
z
" transform="scale(0.015625)"/>
     </defs>
     <use xlink:href="#DejaVuSans-46"/>
     <use xlink:href="#DejaVuSans-72" x="50.269531"/>
     <use xlink:href="#DejaVuSans-65" x="89.132812"/>
     <use xlink:href="#DejaVuSans-65" x="150.65625"/>
     <use xlink:href="#DejaVuSans-20" x="212.179688"/>
     <use xlink:href="#DejaVuSans-52" x="243.966797"/>
     <use xlink:href="#DejaVuSans-65" x="308.949219"/>
     <use xlink:href="#DejaVuSans-73" x="370.472656"/>
     <use xlink:href="#DejaVuSans-70" x="422.572266"/>
     <use xlink:href="#DejaVuSans-6f" x="486.048828"/>
     <use xlink:href="#DejaVuSans-6e" x="547.230469"/>
     <use xlink:href="#DejaVuSans-73" x="610.609375"/>
     <use xlink:href="#DejaVuSans-65" x="662.708984"/>
     <use xlink:href="#DejaVuSans-20" x="724.232422"/>
     <use xlink:href="#DejaVuSans-44" x="756.019531"/>
     <use xlink:href="#DejaVuSans-61" x="833.021484"/>
     <use xlink:href="#DejaVuSans-74" x="894.300781"/>
     <use xlink:href="#DejaVuSans-61" x="933.509766"/>
    </g>
   </g>
   <g id="legend_1">
    <g id="patch_7">
     <path d="M 385.659375 89.19625 
L 511.4 89.19625 
Q 513.4 89.19625 513.4 87.19625 
L 513.4 58.84 
Q 513.4 56.84 511.4 56.84 
L 385.659375 56.84 
Q 383.659375 56.84 383.659375 58.84 
L 383.659375 87.19625 
Q 383.659375 89.19625 385.659375 89.19625 
z
" style="fill: #ffffff; opacity: 0.8; stroke: #cccccc; stroke-linejoin: miter"/>
    </g>
    <g id="line2d_18">
     <path d="M 387.659375 64.938437 
L 397.659375 64.938437 
L 407.659375 64.938437 
" style="fill: none; stroke: #0000ff; stroke-linecap: square"/>
    </g>
    <g id="text_19">
     <!-- Simple ODE45 -->
     <g transform="translate(415.659375 68.438437) scale(0.1 -0.1)">
      <defs>
       <path id="DejaVuSans-53" d="M 3425 4513 
L 3425 3897 
Q 3066 4069 2747 4153 
Q 2428 4238 2131 4238 
Q 1616 4238 1336 4038 
Q 1056 3838 1056 3469 
Q 1056 3159 1242 3001 
Q 1428 2844 1947 2747 
L 2328 2669 
Q 3034 2534 3370 2195 
Q 3706 1856 3706 1288 
Q 3706 609 3251 259 
Q 2797 -91 1919 -91 
Q 1588 -91 1214 -16 
Q 841 59 441 206 
L 441 856 
Q 825 641 1194 531 
Q 1563 422 1919 422 
Q 2459 422 2753 634 
Q 3047 847 3047 1241 
Q 3047 1584 2836 1778 
Q 2625 1972 2144 2069 
L 1759 2144 
Q 1053 2284 737 2584 
Q 422 2884 422 3419 
Q 422 4038 858 4394 
Q 1294 4750 2059 4750 
Q 2388 4750 2728 4690 
Q 3069 4631 3425 4513 
z
" transform="scale(0.015625)"/>
       <path id="DejaVuSans-4f" d="M 2522 4238 
Q 1834 4238 1429 3725 
Q 1025 3213 1025 2328 
Q 1025 1447 1429 934 
Q 1834 422 2522 422 
Q 3209 422 3611 934 
Q 4013 1447 4013 2328 
Q 4013 3213 3611 3725 
Q 3209 4238 2522 4238 
z
M 2522 4750 
Q 3503 4750 4090 4092 
Q 4678 3434 4678 2328 
Q 4678 1225 4090 567 
Q 3503 -91 2522 -91 
Q 1538 -91 948 565 
Q 359 1222 359 2328 
Q 359 3434 948 4092 
Q 1538 4750 2522 4750 
z
" transform="scale(0.015625)"/>
       <path id="DejaVuSans-45" d="M 628 4666 
L 3578 4666 
L 3578 4134 
L 1259 4134 
L 1259 2753 
L 3481 2753 
L 3481 2222 
L 1259 2222 
L 1259 531 
L 3634 531 
L 3634 0 
L 628 0 
L 628 4666 
z
" transform="scale(0.015625)"/>
      </defs>
      <use xlink:href="#DejaVuSans-53"/>
      <use xlink:href="#DejaVuSans-69" x="63.476562"/>
      <use xlink:href="#DejaVuSans-6d" x="91.259766"/>
      <use xlink:href="#DejaVuSans-70" x="188.671875"/>
      <use xlink:href="#DejaVuSans-6c" x="252.148438"/>
      <use xlink:href="#DejaVuSans-65" x="279.931641"/>
      <use xlink:href="#DejaVuSans-20" x="341.455078"/>
      <use xlink:href="#DejaVuSans-4f" x="373.242188"/>
      <use xlink:href="#DejaVuSans-44" x="451.953125"/>
      <use xlink:href="#DejaVuSans-45" x="528.955078"/>
      <use xlink:href="#DejaVuSans-34" x="592.138672"/>
      <use xlink:href="#DejaVuSans-35" x="655.761719"/>
     </g>
    </g>
    <g id="line2d_19">
     <path d="M 387.659375 79.616562 
L 397.659375 79.616562 
L 407.659375 79.616562 
" style="fill: none; stroke: #ff0000; stroke-linecap: square"/>
    </g>
    <g id="text_20">
     <!-- Experimental Data -->
     <g transform="translate(415.659375 83.116562) scale(0.1 -0.1)">
      <defs>
       <path id="DejaVuSans-78" d="M 3513 3500 
L 2247 1797 
L 3578 0 
L 2900 0 
L 1881 1375 
L 863 0 
L 184 0 
L 1544 1831 
L 300 3500 
L 978 3500 
L 1906 2253 
L 2834 3500 
L 3513 3500 
z
" transform="scale(0.015625)"/>
      </defs>
      <use xlink:href="#DejaVuSans-45"/>
      <use xlink:href="#DejaVuSans-78" x="63.183594"/>
      <use xlink:href="#DejaVuSans-70" x="122.363281"/>
      <use xlink:href="#DejaVuSans-65" x="185.839844"/>
      <use xlink:href="#DejaVuSans-72" x="247.363281"/>
      <use xlink:href="#DejaVuSans-69" x="288.476562"/>
      <use xlink:href="#DejaVuSans-6d" x="316.259766"/>
      <use xlink:href="#DejaVuSans-65" x="413.671875"/>
      <use xlink:href="#DejaVuSans-6e" x="475.195312"/>
      <use xlink:href="#DejaVuSans-74" x="538.574219"/>
      <use xlink:href="#DejaVuSans-61" x="577.783203"/>
      <use xlink:href="#DejaVuSans-6c" x="639.0625"/>
      <use xlink:href="#DejaVuSans-20" x="666.845703"/>
      <use xlink:href="#DejaVuSans-44" x="698.632812"/>
      <use xlink:href="#DejaVuSans-61" x="775.634766"/>
      <use xlink:href="#DejaVuSans-74" x="836.914062"/>
      <use xlink:href="#DejaVuSans-61" x="876.123047"/>
     </g>
    </g>
   </g>
  </g>
 </g>
 <defs>
  <clipPath id="pf9b6c2e5e0">
   <rect x="72" y="51.84" width="446.4" height="326.16"/>
  </clipPath>
 </defs>
</svg>
